<?xml version="1.0" encoding="utf-8"?>
<!-- Generator: Adobe Illustrator 22.1.0, SVG Export Plug-In . SVG Version: 6.00 Build 0)  -->
<svg version="1.1" id="world-map" xmlns="http://www.w3.org/2000/svg" xmlns:xlink="http://www.w3.org/1999/xlink" x="0px" y="0px"
	 viewBox="0 0 784.1 458.6" style="enable-background:new 0 0 784.1 458.6;" xml:space="preserve">
<title>Simple World Map</title>
<desc>Author: Al MacDonald
    Editor: Fritz Lekschas
    License: CC BY-SA 3.0
    ID: ISO 3166-1 or &quot;_[a-zA-Z]&quot; if an ISO code is not available</desc>
<g>
	<path id="_somaliland" d="M481.9,261.2l3.5,2.4l1-0.1l8.8-3l1,3.2l-0.7,2.7l-1.9,1.5l-4.7-0.3l-6.8-4.2L481.9,261.2L481.9,261.2z"
		/>
	<path id="ae" d="M497.7,226.5l0.8,3l8.5,0.8l0.6-6.2l1.6-0.9l0.4-2.3l-2.7,0.8l-3,4.5L497.7,226.5L497.7,226.5z"/>
	<path id="af" d="M515.1,193.8l1.4,10.8l3.4,0.8l0.3,1.9l-2.5,2l4.6,3.7l8.9-3.2l0.7-3.8l5.6-3.5l2.1-8.1l1.6-1.7l-1.7-2.9l5.4-3.3
		l-0.7-1l-2.5,0.2l-0.2,2.3l-3.4,0l-0.1-3.1l-1.1-1.3l-1.8,1.6l0.1,1.5l-2.7,1l-5.1-0.3l-6.6,6.9L515.1,193.8L515.1,193.8z"/>
	<path id="al" d="M419.9,178.8v4l1.1,2.2l0.8-0.1l1.4-2.6l-0.8-1.1l-0.3-2.8l-1.1-1L419.9,178.8L419.9,178.8z"/>
	<path id="am" d="M476.7,179l4.1,5.4l-1.2,1.4l-2.9-0.5L473,182l0.2-2.1L476.7,179L476.7,179z"/>
	<g id="ao">
		<path d="M406.6,305.9l2.9,11l-0.1,3.5l-4.3,4.6l-0.6,7.5l16.6,0.1l5.4,2l4.5-0.6l-2.6-3.3l0-9.3l5.1-0.2v-3.6l-4.1-0.2l-0.8-8.6
			l-1.7,0l-0.9-0.8l-1,0.1l-1.4,2.6h-5.3l-1.2-1.2l0.4-1.7l-1.4-2.1L406.6,305.9L406.6,305.9z"/>
		<path d="M404.8,302.9l1.5,2l1.9-1.8l-0.6-1.9l-0.5,0L404.8,302.9L404.8,302.9z"/>
	</g>
	<g id="ar">
		<path d="M248.3,359l1.7,1.6l-6.4,9.5l-2.2,2.5l0.8,10.8l4.9,6l-4.1,7.2l-3.1,1.3h-3.6l1,5.6l-5.6,1.9l1.3,4.7l-3.4,10.7l4.1,3.4
			l-2.2,5.5l-3.8,6l2,4.2l-4.9,0.8l-4-5l-0.7-15.4l-6.3-26.2l1.9-9.2l-4-11.7l2.7-15.2l2.5-2.9l-0.6-2.2l3.2-2.9l7.1,0.5l3.9,4.2
			l4.6,0.1l4.7,2.9l-1.4,3.2l0.3,3.2l6.6-0.3L248.3,359L248.3,359z"/>
		<path d="M234,446l0.2,5l3.8-0.3l3.2-2.1l-5.5-1.1L234,446L234,446z"/>
	</g>
	<path id="at" d="M399.7,161.9l-0.6,1.2l0.5,0.8l2-0.4h1.7l1.9,1.6l4-0.7l2.9-1.7l0.7-1.2l-0.1-1.5l-2.6-2l-3.5,0l-0.3,2l-3.7,1.8
		L399.7,161.9L399.7,161.9z"/>
	<g id="au">
		<path d="M642.2,367.5l-0.3,21.9l-3.4,2.5l-0.3,2.2l4.6,3.1l11.3-2.2h5.8l2.1-3.1l12.9-2.5l9.2,2.8l-0.6,3.7l1.2,3.7l7.1-1.2
			l0.3,1.9l-4.6,3.4l1.5,1.2l3.4-1.2l-0.9,10.2l6.4,4.9l3.7-1.2l1.8,1.9l10.7-1.5l10.1-16.4l3.7-0.9l7.4-13.6l1.8-11.7l-4.6-5.9
			l1.8-1.2l-3.7-11.4l-4-2.8l0.6-15.4l-3.7-2.8l-0.9-8.7H721l-6.1,20.4l-3.4,0.3l-7.7-7.7l4.3-11.4l-8-1.5l-8.9,2.5l-2.5,7.1l-4,0.9
			l-0.3-4.9l-16.3,9.9l0.3,3.7l-2.5,3.4H660l-13.2,5.6L642.2,367.5L642.2,367.5z"/>
		<path d="M698,426.5l-1.5,6.2l0.3,4.3l4.6-0.3l5.2-8L698,426.5L698,426.5z"/>
	</g>
	<path id="az" d="M478.2,177.1l-0.9,1.5l4.1,5.3l1.4-0.5l2.3,2.4l1-4.3l2.5,0.4l-0.1-1.2l-4.2-3.6l-0.8,2.1L478.2,177.1L478.2,177.1
		z"/>
	<path id="ba" d="M411.9,169.5l-0.3,0.5l5.8,6l2.1-3.1l-0.1-1.2l-1.9-2.3L411.9,169.5L411.9,169.5z"/>
	<path id="bd" d="M585.5,216.3l-1.1,2l2.9,5.6l0.1,4.4l0.5,1.2l3.4,0.1l2-1.9l1.4,0.9l0.3,2.7l1.1-0.7l0.1-3.4l-1-0.1l-0.6-2.9
		l-2.4-0.1l-0.6-1.6l1.5-2l0-1h-4.3L585.5,216.3L585.5,216.3z"/>
	<path id="be" d="M383.3,150.1l-0.6,1.4l5.9,3.9l0.4,0.1l0.4-1.1l0.8-0.6l-1.3-1.5H388l-1.3-1.4L383.3,150.1L383.3,150.1z"/>
	<path id="bf" d="M373.7,251.9l3.1-0.2l5.2,7.3l-4.8,3.6l-3.5-0.9l-4.7,0.1l-0.8,2.7l-3.9,0.2l-1.1-1.5l1.4-4.4L373.7,251.9
		L373.7,251.9z"/>
	<path id="bg" d="M426.3,172.5l0.1,4.3l1.5,3l5.5,0.1l2.5-1.7l2.4-1l-0.6-2.8l0.5-1.5l-1.2-0.6l-1.7,0.1l-1.3,1.3l-5.5,0
		L426.3,172.5L426.3,172.5z"/>
	<path id="bi" d="M447.7,296.8l3.7-0.1l-1,3.2l-0.9,0.8h-1.1l-0.8-2.2L447.7,296.8L447.7,296.8z"/>
	<path id="bj" d="M380.7,273.7h1.8l0.1-5.2l2.3-3.4l-0.1-5.9l-2.1-0.1l-3.6,2.8l1.5,2.9L380.7,273.7L380.7,273.7z"/>
	<path id="bn" d="M658.3,273.5l-2.5,3l2,0.6l1.1-1.6L658.3,273.5L658.3,273.5z"/>
	<path id="bo" d="M207.9,319.8l7.1-3.1l2.4,0.2l1.6,6.5l10.8,3.6l1.8,5.5l4.5,0.6l1.9,4.7l-1.3,4.3l-7.3,0.6l-2.7,6.9l-5.7-0.1
		l-1.8-0.3l-3.3,3.2l-1.6-0.2l-5.6-13l1.5-2.3l0.5-9.2l-1.4-5.5L207.9,319.8L207.9,319.8z"/>
	<path id="br" d="M255.9,376.9l5.4-10.4l0.2-8.7l10.1-6.5h5.6l4.4-7.5l0.8-14.4l-1.8-3.9l10.7-9.8l0.4-10.8l-14.5-7.1l-17.5-5.5
		l-8.3-0.8l2.2-4.7l-0.6-7.1l-1.8-0.6l-2.7,5.3l-1.4,1.8l-3.6-1.6l-12.1,4.3l-4-5.1l0.6-5.3l-3.8,3.9l-4.2-2.3l-0.4,0.6l0,1.8
		l3.6,1.9l-5.4,5.7l-3.4,0l-3.5-3.5l-3.9,0.1l-0.5,4.2l2.3,2.7l-2.7,8.5l-3.1,0.2l-5,3.1l-1.2,6.1l4.3,4.6l0.8-0.9l3-0.8l2.6,4.3
		l7.4-3.2l2.9,0.2l2,7l10.5,3.3l1.8,5.6l4.5,0.5l2.1,5.3l-1.4,4.7l1.9,2.5l-0.3,3.7l5-0.5l4.6,5.8l-0.4,4.1l2.7,2.3l-6.6,10
		L255.9,376.9L255.9,376.9z"/>
	<g id="bs">
		<path d="M191.4,221.5l-1.1-0.3l-0.1,2.1l1.3,1.3l0.9-1.3L191.4,221.5L191.4,221.5z"/>
		<path d="M193.5,224.8l-1.5,0.8l1.4,2l0.8-1L193.5,224.8L193.5,224.8z"/>
		<path d="M198.4,226.3l-1.6-0.1l0.2,1l1.2,1.7l1-1.1L198.4,226.3L198.4,226.3z"/>
		<path d="M197.6,224.3l-2.6-1.1l-0.5-2.6l1-0.4l1,2l1,0.8L197.6,224.3L197.6,224.3z"/>
		<path d="M195.1,219l-1.3-0.3l-0.3-1.7l-1.4-0.5l0.9-0.9l1.7,0.6l1.3,0.8L195.1,219L195.1,219z"/>
	</g>
	<path id="bt" d="M585.3,212l1.3,1.8l4.5,0l-0.5-2.5L585.3,212L585.3,212z"/>
	<path id="bw" d="M423.8,353l1.9,0.6l-0.3,5.3l1.9,0.3l4.4-4l5.3,0.6l1.4-3.5l6.7-6.1l-8-9.2l-0.1-1.5l-0.9-0.3l-2.4,2.2l-6.3,0.2
		l-0.9,7.9l-2.5,0.6L423.8,353L423.8,353z"/>
	<path id="by" d="M425.7,141.3l1.3,2.1l-0.5,1.7l0.1,1.3l0.5,1.6l2.7-1.5l3.3,0.1l2.3,1h5.9l1.7-4.1l1-1.6v-1l-3.7-5.2l-3.3-1.3
		l-2.7-0.3l-2.3,0.7l0.1,2.4l-3.2,4.1L425.7,141.3L425.7,141.3z"/>
	<path id="bz" d="M161.1,241.6l0,3.2h0.7l2.5-4.6h-1.7L161.1,241.6L161.1,241.6z"/>
	<g id="ca">
		<path d="M121,39.6l1.7,2.6l0.9,3.5l4.3,1.1l3-3.2l2.6,1.3l7.3,0.6l5.2-2.2l0.9,7.2h3v-3l3,0.2l7.5,8.9l5,3l-2.6,4.1l1.1,1.1l9.7,2
			l0.2,4.3l2.6,0.4L177,65l4.1-1.1l3,4.6l6.5,3l3.2,0.6l2.2-2.6l0.2-4.1L200,63l1.3,3.5l-3.4,6.1l0.4,3l1.9-3l3.9-3.5l0.2-4.6
			l-2.2-3.5l0.6-2.8l5.2-2.6l2.4,1.7l0.4,15.2l3.7-3.2l2.2,1.3l-3,5.2l3.9,0.9l5.6-8.7l4.7,5l-1.9,8.9l-4.7,2.6l-4.5-2.2l-8.2,1.7
			l0.9,2.8l-2.2,3.5l-6.7,1.5l-7.5,5.9l-6.7,8.9l-0.9,2.8l4.5,1.7l1.7,4.3l6.2,6.3l9.9,4.3l-2.2,10l-0.2,2.8l2.6,1.7l3.4-4.6
			l0.4-8.7l5.4-0.2l2.6-5l0.4-7.6l6.9-13.5l8.6,3l4.5,6.3l-1.9,6.3l3.4,2l8.4-5.6l2.4,15.4l7.8,9.3l0.2,4.8l-8.6,2.2l-4.1,4.3
			l-8.6-2l-4.3-0.2l-7.5,5.9l4.5-1.1l5.6-1.1l1.1,1.3l-1.5,4.8l0.2,4.3l2.6,1.7l2.6-0.6l1.3-2h1.7l-2.8,5.2l-5.4,0.2l-2.4,3.5h-3
			l-0.9-2.6l4.3-4.3l-5.2,1.7l-0.2-7.4l-1.5-0.9l-4.5,2l-0.4,3.7h-10.3l-8.8,6.1l-11.8,3.9l-1.3-1.7l6-8.9l-3.4-3.3l-2.2-4.1
			l-4.4-3.3l-4.7-0.4l-8.4-5.9l-61.1-10l-1-4.1l-5.6-5.2v-4.3l0.9-3.9l-0.4-2.2l-2.2-2.2l-0.4-3.5l5.6-3.9l-3.4-18.7l-4.7-0.2
			l-4.3-5.6L121,39.6L121,39.6z"/>
		<path d="M99.9,108.5l-1.5,2.8l0.5,2l1,0.6l-0.2,0.8l-1,0.3l0.3,3l1.1,1.1l0.9-1l-1.1-2.9l0.7-2.3l1.6-2.2l-1.2-2L99.9,108.5
			L99.9,108.5z"/>
		<path d="M104.8,125.4l-1.3,0.5l2.4,2.8l0.6,3.3l2.4,2.6l2.1-0.4v-3.4l-2.5-1.6L104.8,125.4L104.8,125.4z"/>
		<path d="M237.4,54.2l-1.5,1.5l1.3,2.1l6.3,0.8l-4-4.3L237.4,54.2L237.4,54.2z"/>
		<path d="M160.3,28.6l0.2,3.5l-6.9,7.1l1.7,5.8l5-1.3l2.9-4.3l7.3-2.7l5.9-0.4l-4.6-5l-2.3,1.7l-1.7-0.6l-1-2.1l-2.1-2.1
			L160.3,28.6L160.3,28.6z"/>
		<path d="M169.3,18.3l-1.5,2.7l7.5,2.7l2.7-4.1l1.1,2.7h1.9l3.6-4.1l-4.4-1.2l-1.7-1.3l-2.3,2.3L169.3,18.3L169.3,18.3z"/>
		<path d="M182.4,23.7l-5.9,2.5v1.9l7.7,2.9l-1.7,1.9l1.1,2.5l4.8-2.1h4l1.9,3.1l3.3-3.3l-0.8-3.1l-2.7,1l-0.4-3.9l1.3-2.3h-1.3
			l-2.1,1.3l-1,0.8l0.6,2.7l-1.5,1.2l-2.3-0.2l-0.6-3.5L182.4,23.7L182.4,23.7z"/>
		<path d="M190.2,17.7l-0.6,1.9l3.6,1.7l2.7-1.5l-0.2-1.2L190.2,17.7L190.2,17.7z"/>
		<path d="M193.1,14.5l-2.7,1l0.2,1.4l5.9-0.4l-0.2-1.3L193.1,14.5L193.1,14.5z"/>
		<path d="M206,17.7l-0.4,1.3l-1,1.3v1.9l3.6-0.6l3.8,3.3h1.3v-3.3l-3.8-4.3L206,17.7L206,17.7z"/>
		<path d="M215.7,21.6l1.5,1.7l-1.3,2.3l1,2.5l4.2-2.3v-1.7l-2.5-2.9L215.7,21.6L215.7,21.6z"/>
		<path d="M221.3,17.2l0.2,3.1h5.2l1.3,1.2l-0.2,1.3l-4.6,0.6l3.3,4.4l4.4,0.8l6.1-2.7l-8.8-13.3l-2.7,1.7l0.2,2.3l-3.1-1.2
			L221.3,17.2L221.3,17.2z"/>
		<path d="M176.6,39l-7.3,1.9l-4.2,3.7l0.4,4.1l7.7,2.3l-1.7,3.9l-5.6-3.5l-1.5,2.9l3.6,2.5l-0.2,4.1l5.6,1.5l6.7-0.4l1.1-2.1l5,5.6
			l3.4-1.2l0.6-3.9l2.5,1.7l0.4-3.9l-3.1-1.9l0.2-12.2l-2.7-2.1l-2.9,3.9L176.6,39L176.6,39z"/>
		<path d="M200,47.5l-2.5-1.2l-1.3,1.7l2.7,4.3l0.2,4.1l5.7-3.5v-5l2.1-2.1l-2.1-1.5h-3.4L200,47.5L200,47.5z"/>
		<path d="M212.3,45.7l-4,3.3l1,4.1h2.5l1.1-2.1l1.7,1.7l1.7-0.2l4.6-3.9L212.3,45.7L212.3,45.7z"/>
		<path d="M211.9,39.4l-1,1.9l4.2,1.5l1.1-1.7L211.9,39.4L211.9,39.4z"/>
		<path d="M209.4,32l-4.2,0.6l-2.5,2.3l4.6,0.2l-1.3,3.5l1,1.5l1.3-0.2l3.3-5.2L209.4,32L209.4,32z"/>
		<path d="M216.7,30.7l-2.3,0.8l0.4,3.1l3.8,2.5l0.2,1.9l-1.1,1.2l0.6,3.9l14.8,4.8l4,1.3l4-3.5l-4.8-3.9l-4.4,1.2l-6.1-0.6
			l-2.3-2.3l-0.6-6.4l-3.8-1.9L216.7,30.7L216.7,30.7z"/>
		<path d="M228.8,50.8l-4.2-0.4l-5,1.9l-2.7,3.7l0.8,10l8.2,0.4l7.9,3.9l5.6,6.4l4.2-0.2l-1.1,6l-3.8,6.4l-4.2,1.9l-3.1-0.6
			l-1.5-1.3l-2.3,3.1l1,3.1l3.3,0.2l4-1.9l3.4,8.9l8.6,5.6l5.9-7.5l-5-8.1l2.9-3.3l4,6.8l7.3-6.4l-1.3-2.9l-5,1.5l-3.4-9.5l3.3-5.4
			l-6.5-6.9l-3.6,2.5l-3.4-7.5l-7.3,1l-1.9-9.1l-5.9,4.1l-0.6,5h-3.3l0.4-4.4L228.8,50.8L228.8,50.8z"/>
		<path d="M231.3,32.4v1.7l-4.2,1l1.1,1.9L233,39l5.4,0.6l3.8,2.7l3.8-2.1l-2.7-2.7h3.4l2.1-2.3l5.2-0.8v-1.2l-2.9-1.9l0.4-2.1
			l8,1.3l11.9-4.6l-4.4-1.3l1.1-1.5h9.2l1.5-1.5l-18.6-6.6l-4.4-1.5l-4.8,3.5l-5.4-4.4l-2.9-0.2l-0.6,3.7l-3.6-3.3l-4.2,1.3l0.8,2.1
			l6.3,1.4l-0.4,3.1l3.4,2.1l8.4-2.1l0.2,2.9l-6.9,3.3l-4.2-3.3l-3.8,0.4l3.8,5.4l-1.9,1l-2.9-2.5l-2.1,1.3l1.9,3.7h3.3l-0.8,3.5
			l-2.7-0.4l-3.4-3.7L231.3,32.4L231.3,32.4z"/>
		<path d="M214.2,85.6l-3.7,4.6l-0.2,5.1l3.2-1.8h3.9l2.7,2.5l2.5-2.1L214.2,85.6L214.2,85.6z"/>
		<path d="M258.7,145.4l-9.1,8.7l0.9,2.1l11.2,4.1l1.6-2.8l-0.9-4.6l-3.7,0.5l-2.1-2.3l3.4-3.4L258.7,145.4L258.7,145.4z"/>
	</g>
	<path id="cd" d="M407.3,305l8.9-0.2l1.8,2.6l-0.1,1.9l0.7,0.6h4.4l1.3-2.5h1.8l0.7,0.7l2.5-0.1l0.7,8.7l4.3,0.1v0.7l11.5,5.2l0.5,1
		h2.4l-0.3-3.6l-4.4-2.1l0.3-2.8l1.9-4.4l4.3-0.1l-3.7-12.2l0.1-5.2l5.8-9.1l0.1-1.3l-0.9-0.5l0-2.5l-1.1-0.1l-1.1-1.4l-17.6-0.8
		l-3.2,3.1l-5.3-3.5l-1.9,1.1l-1.3,11.3l-3.3,2.6l-1,2.3l0.2,3.4l-6,4.9l-1.6-0.7l0.2,0.9L407.3,305L407.3,305z"/>
	<path id="cf" d="M412.7,277.6l4,4.4l1.6-2.1l2.5,0.1l0.5-2l2.5-1.6l5.2,3.6l3-3l11.6,0.5l-10.7-11.1l1.4-0.9l0.2-2l-2.4-1.1h-3.6
		l-5.8,5.7l-0.2,2.4l-4.6-0.1l-0.1,1l-3-0.3l-2.7,5.1L412.7,277.6L412.7,277.6z"/>
	<path id="cg" d="M408.7,285l-0.1,1.3l4.1,0.1l0.1,10.7l-3.8-0.1l-2.2-1.7l-1.7,1l-0.1,0.5l0.9,0.4l0.3,2.2l-2.3,2l0.5,1.1l2.6-2
		h1.2l0.4,1.2l1.6,0.7l5.3-4.5l-0.1-3.3l1.1-2.7l3.4-2.5l0.9-8.5l-2.4,0l-2.8,3.8L408.7,285L408.7,285z"/>
	<path id="ch" d="M393,161.2l-3.8,4l0.1,0.4l1.5-0.5l1.4,1.9l2.4-0.8l1.6,1.3l0.7-0.4l2-3.1l-0.5-0.5l-2-0.1l-1-2L393,161.2
		L393,161.2z"/>
	<path id="ci" d="M357.7,280l3.7-2.6l4.6-0.8l4.7,1l-2.4-3.6l-0.7-2.2l0.7-6.5l-4.2,0.2l-1.9-1.8l-4,0.1l-1.9,0.3l0.2,4.4l-1,0.4
		l-1.2,2.2l3.1,3.6L357.7,280L357.7,280z"/>
	<g id="cl">
		<path d="M230.6,441.9l-3.7,8.1l6.4,0.7l0.1-5.4L230.6,441.9L230.6,441.9z"/>
		<path d="M229.4,440.6l-2.8,3.1l-0.3,3.6l-5.4-3l-5.7-8.2l-1.7-2.9l2.4-3l-0.2-3.8l-2.7-1.1l-2.1-1.6l0.4-2.1l2.8-0.8l0.6-12.4
			l-4.4-2.5l-2.8-64.5l0.7-1.3l5.6,12.8l1.8,0l0.6,2l-2.4,2.9l-2.7,15.4l3.9,11.9l-1.8,9l6.3,26.5l0.7,15.5l4.5,5.2L229.4,440.6
			L229.4,440.6z"/>
		<path d="M210.9,408.2l-1.1,1.7l0.6,2.9l1.1,0.1l0.6-3.7L210.9,408.2L210.9,408.2z"/>
	</g>
	<path id="cm" d="M397.3,277.8l2.8,2.6l-0.2,4l15.3-0.4l1.2-1.4l-4.4-4.7l-0.6-1.7l2.8-5.2l-1.9-3.5l-1.6-0.9v-1.8l1.8-1.2l0.1-5.5
		l-1.5-0.2l0,2.9l-6.4,12l-3.9,0.2l-2.7,1.8L397.3,277.8L397.3,277.8z"/>
	<g id="cn">
		<path d="M563.7,144.5l-3,7.5l-4.1-0.2l-4.3,9.5l3.7,4.7l-7.6,10.5l-3.9-0.7l-2.6,3.3l0.6,2l3,0.2l1.5,3.5l3,0.7l9.3,12v6.1
			l4.6,2.8l5-0.9l6.3,3.7l7.6,2.2l3.7-0.4l4.1-0.4l8.7-5.7l2.8,0.4l1.1,2.6l2.4,0.7l3.3,4.8l-2.2,4.8l1.3,3.3l3.7,1.3l0.6,3.9
			l4.3,0.4l0.6-2l6.3-3.3l3.9,0.2l4.6,5l3-1.3l2,0.2l0.9,2.4l1.5,0.2l2.2-3.1l8.7-3.3l7.8-9.4l2.6-9l-0.2-5.9l-3.3-0.7l2-2.2
			l-0.4-3.5l-8.3-8.3v-4.2l2.4-3.1l2.4-1.1l0.2-2.4h-6.1l-1.1,3.3l-2.8-0.7l-3.5-3.7l2.2-5.7l3-3.3l2.8,0.2l-0.4,5l1.5,1.3l3.7-3.7
			l1.3-0.2l-0.4-2.8l3.5-4.2l2.6,0.2l1.5-4.8l1.8-0.9l0.2-3l-1.7-1.8l-0.1-4.7l3.3-0.2l-0.2-12.2l-2.3,1.4l-0.9,3.1l-3.9,0
			l-11.3-6.4l-8.2-9.8l-8.3-0.1l-2.1,1.8l2.7,6.1l-0.9,5.8l-3.3,1.4l-1.9-0.1l-0.1,5.7l2,0.4l3.5-1.5l4.6,2.2v2.2l-3.3,0.2l-2.6,5.7
			l-2.4,0.2l-8.5,11.2l-8.9,3.9l-6.1,0.4l-4.1-2.8l-5.9,3.1l-6.3-2l-1.5-4.2l-10.6-0.7l-5.6-9.2h-2.4l-1.9-4.3L563.7,144.5z"/>
		<path d="M641,231.1l-2.1,0.6l-1.5,1.8l1.2,2.4l1.8,0.2l2.1-1.8l0.5-2.4L641,231.1L641,231.1z"/>
	</g>
	<path id="co" d="M203.6,256.7l-1.8-0.2l-11.8,9.7l-1.2,3.4l-1.6,0.2l0.7,7.5l-4.1,10.1l4.5,3.8l5.7,0.4l3.9,5.8l5.7,0.2l-0.2,4.3
		h2.1l2.3-7.9l-2.1-2.7l0.5-5l4.5-0.4l-0.5-11.7l-10-3.2l-2.3-6.3L203.6,256.7L203.6,256.7z"/>
	<path id="cr" d="M172.1,261.2l1.2,2.4l1,1.3l-1.3,3.9l-2.5-1.8l-4.1-3.8v-2.5L172.1,261.2L172.1,261.2z"/>
	<path id="cu" d="M175.1,228.3v1.1l4.6,0.1l2.2-1.3l0.3,0.9l4.5,1.1l4,3.6l-0.9,1.3l0.2,1.4l3.3,0.8l3.3-1.5l1.5-1.5l-2.2-1.1
		l-11.2-6.6l-3.9-0.4L175.1,228.3L175.1,228.3z"/>
	<g id="cv">
		<path d="M319.2,248.7l-1.6,0.9l1.2,0.9l1.4-0.7L319.2,248.7L319.2,248.7z"/>
		<path d="M323.3,250.6l-1.1,1l0.8,1.4l1.8-0.8L323.3,250.6L323.3,250.6z"/>
		<path d="M320.9,253.2l-1.4,0.8l1.5,2l1.2-0.6L320.9,253.2L320.9,253.2z"/>
	</g>
	<path id="cy" d="M453.8,196.2l1.1,0.8l-3.3,3.1L450,200l-1.2-0.8l0.2-1.5l2.4-0.2L453.8,196.2L453.8,196.2z"/>
	<path id="cz" d="M406.4,157.3h2.6h1.3l2,1.5l3.8-3.2l-3.7-2.6l-3.6-1.8l-2.5,0.5l-3.4,2.2L406.4,157.3L406.4,157.3z"/>
	<path id="de" d="M391.5,142.6l3.1-0.5V140l2.6-0.4l1.4,1.4l1.5,0.2l2.3-1l2.1,0.6l1.8,1.6l0.3,6l1.8,2.4L406,151l-4,2.5l0.3,0.8
		l3.6,3.4l-0.3,1.7l-3.3,1.7l-3.1,0.1l-0.8,1.6h-1.6l-0.8-1.7l-2.7-0.7l-0.1-2.8l-1.4-0.8l0.1-1.9l-0.4-1.3l-2-1.8l0.4-2.9l2.2-1
		L391.5,142.6L391.5,142.6z"/>
	<g id="dk">
		<path d="M396.4,128.5l-3.6,4l-0.1,2.6l1.6,4.3l2.6-0.5l-0.3-3.5l1.8-2l0-1.5l-1.2-3.2L396.4,128.5L396.4,128.5z"/>
		<path d="M398.2,135.8l-1.1,0.2v1.6l1.1,0.9l1-0.2l-0.2-1.5L398.2,135.8z"/>
		<path d="M401.5,134.3l-0.9,0.2l-1.1,1l0.4,2l1.3,0.5l-1.3,0.5l-0.3,0.7h2l0.6-1.1l-0.8-0.4l0.2-1l0.9-1.2l-0.2-1L401.5,134.3z"/>
	</g>
	<path id="dj" d="M478.2,258.2l-0.5,2.9l3.4-0.1l0.1-4.3L480,256L478.2,258.2L478.2,258.2z"/>
	<path id="dm" d="M225.5,243.8l-0.8,1.6l0.9,1.2l1.1-1L225.5,243.8L225.5,243.8z"/>
	<path id="do" d="M211.7,239.9l-4.6-3l-2.9-1l-0.6,5.5l0.6,0l0.8,1.5l1-1.1l2.9-0.8l2.5,0.5L211.7,239.9L211.7,239.9z"/>
	<path id="dz" d="M393.9,194.2l-3.5-1.2l-14.7,2.8l-3.2,2.4l2,10.1l-5.8,0.2l-3.5,5.6l-8.4,2l0,4.1l27.5,21l4.7,0.4l15.7-12.2
		l-1.6-2l-2.9-0.4l-1.8-3v-12.2l-1.2-1.2l0.2-3.2l-3.1-3.2l-0.4-3.4l1.4-1l-0.6-3.6L393.9,194.2L393.9,194.2z"/>
	<g id="ec">
		<path d="M183.2,287.8l-4.1,2.5l-0.3,3.8l-0.8,1.2l2.6,2.5l-1.1,1.2l0.3,3.1l4.6,1.1l7-8.3l0-2.9l-3.3-0.2L183.2,287.8L183.2,287.8
			z"/>
		<path d="M152.8,289.9l-0.5,2.4l-1,1l0.7,1.2l1.8-0.7l0.8-1.5l-0.5-1.5L152.8,289.9L152.8,289.9z"/>
	</g>
	<g id="ee">
		<path d="M431.8,121.7l-4.8-0.2l-3.1,1.9l0,1.4l2,1.9l6.2,1L431.8,121.7L431.8,121.7z"/>
		<path d="M421.5,122.5l-1.3,0.4l1.3,0.2l0.6,0.7l0.7-0.9l-0.7-1.2L421.5,122.5z"/>
		<path d="M422,124.2l-1.9,0.8l-0.6,1.1l0.6,0.7l2.4-0.9l1.1-0.8L422,124.2z"/>
	</g>
	<path id="eg" d="M435.4,207.6l2.3,0.1l4.5,1.2l2.1,0.1l2.6-2.2h1.2l2.2,1.2h2.8l0.5,0l1.8,5.2l0.5,1.7l0.5,2.5l-0.9,0.6l-1.5-0.7
		l-1.7-5.5l-1.5-0.1l-0.1,1.9l1,3.2l8.1,10l0.2,4.3l-2.4,2.7l-22.2-0.3L435.4,207.6L435.4,207.6z"/>
	<path id="er" d="M465.5,252.3l-0.2-5.1l3.4-4l0.9,0.7l1.7,5.6l8.1,6l-1.5,1.8l-5.9-5.1L465.5,252.3L465.5,252.3z"/>
	<g id="es">
		<path d="M371.8,174.7h-11l-2.2-1l-1.1,0.1l-1.3,2.7l0.5,2.8l4.2,0.4l0.5,1.8l-1.8,10.3l0.1,1.9l3,1.6l3.4,0.2l6.9-1.7l3.4-4.2
			l0.1-4.3l6-5.4l0.3-2.4l-5.4-0.1L371.8,174.7L371.8,174.7z"/>
		<path d="M343.5,216.9l-1.5,0.9l0.7,0.7L343.5,216.9L343.5,216.9z"/>
		<path d="M338.2,217l-1.9,0.5l0.9,1.4h1.4L338.2,217L338.2,217z"/>
		<path d="M333.8,215.6l-1.2,1.2l1.6,1.4l0.9-2.1L333.8,215.6L333.8,215.6z"/>
		<path d="M382.8,185.3l-1.4,0.5l0.3,1.2h2l0.8-0.9L382.8,185.3L382.8,185.3z"/>
	</g>
	<path id="et" d="M459.2,267l6.3-14l6.2,0l5.5,4.8l-0.4,4h4.3l0.4,2.4l7,4.2l4.3,0.2l-8.2,8.8l-11.2,3.4h-2.8l-4.9-4.2l-2-0.8
		l-3.8-5.6l-2.5,0l-0.3-2.6L459.2,267L459.2,267z"/>
	<path id="fi" d="M422.3,98.6l1.8,0.8l1.1,2.1l-1.1,1.4l-5.5,6.1l-1,3.2l1.3,4.6l4.3,3.2l5.7-2.7l4.6-0.6l4.3-6.9l-3.2-7.5l-3-7.2
		l0.5-4.6l-1.9-0.3l-0.5-3.4l-2.6-4.2l-2.8,2l-1.1,4.6l-3-1.8l-4.2-1l-0.9,1.1l1.6,1.5l2.9-0.1l2.4,3.8L422.3,98.6L422.3,98.6z"/>
	<g id="fk">
		<path d="M250.4,436.8l-2.3-0.2l-2.3,1.5l1.6,1.8L250.4,436.8L250.4,436.8z"/>
		<path d="M252.7,435.7l-0.8,2.4l-2.1,1.9l0.1,0.6l3.7-1.4l1.5-1.9L252.7,435.7L252.7,435.7z"/>
	</g>
	<g id="fr">
		<path d="M382.2,152l-1.9,0.5l-3.8,4.2l-1.1,0.1l-1.5-1.1l-1,0.2l-0.8,2.4l-5.6,0.2l0.2,1.2l3.8,2.5l4.4,3.5l-0.1,4.2l-2.4,4.2
			l5.1,2.5l5.2,0.2l1.6-1.9l3.3,0.1l0.9,0.8l3.3-0.2l1.7-2.2l-2.1-2.5l-0.2-1.6l0.5-1.8l-1.1-1.5l-1.8,0.5l-0.2-1.4l4.1-4.5v-2.7
			l-2.3-0.8l-1.4-1L382.2,152L382.2,152z"/>
		<path d="M245.4,275.7l5.1,3.2l-2.6,5.3l-1,1.2l-2.8-1.6l0.1-5.7L245.4,275.7L245.4,275.7z"/>
		<path d="M509.3,345.3l-2,0.1l-0.1,1.7l1.3,0.3l2-0.9L509.3,345.3L509.3,345.3z"/>
		<path d="M486.1,321.1l0.7,1.5h1.1l0.5-1.9L486.1,321.1L486.1,321.1z"/>
		<path d="M228.1,248.2l-0.9,0.8l0.7,1.4l1.3-0.4L228.1,248.2L228.1,248.2z"/>
		<path d="M397.3,176.4l-1.7,1.7l-0.2,1.5l1.4,0.8l0.5-0.1l0.3-2.2L397.3,176.4L397.3,176.4z"/>
		<path d="M223.3,242.5L222,243l0.5,1.1l1.5-1l-0.3-0.3L223.3,242.5L223.3,242.5z"/>
	</g>
	<path id="ga" d="M404.7,285.1l-0.1,2.2l-4.9-0.1l-3,5.8l7,7.7l1.7-1.5l-0.1-1.5l-1.2-0.6V296l2.7-1.7l2.4,1.8l2.6,0.1l-0.1-9.1
		l-4.2-0.2l-0.1-1.9L404.7,285.1L404.7,285.1z"/>
	<g id="gb">
		<path d="M369.9,126.4l-1.6,2.4l0.6,1h3.6v1.6l-1,1.3l0.6,3.4l2.1,4l1.6,3.7l2.5,1l1.1,1.9l-0.2,1.8l-1.6,1l-0.2,0.8l1.1,0.6
			l-1,1.3l-2.2,1l-4.3-0.5l-6.7,3l-2.2-1.1l6.3-3.7l-0.8-0.5l-3.3-0.3l2.1-3l0.3-2.6l2.7-0.3l-0.5-5l-3.2-0.2l-1-1.1l0.2-3.7
			l-1.9,0.2l1.9-6.4l3.5-2.6L369.9,126.4L369.9,126.4z"/>
		<path d="M363.2,137.1l-2.9,0.3l-0.2,2.6l1.9,1.3l2.1-0.5l0.8-1.4L363.2,137.1L363.2,137.1z"/>
	</g>
	<path id="ge" d="M464.4,174l2.8,3.7l3.5,1.6l2.2,0l3.7-1l0.9-1.5l-11-4.1L464.4,174L464.4,174z"/>
	<path id="gh" d="M368.3,271.6l1,2.3l2.5,4l1.4-0.1l3.8-2.2l-0.3-12.4l-3-0.9l-4.1,0.1L368.3,271.6L368.3,271.6z"/>
	<g id="gl">
		<path d="M261.8,40.8l-1.2,1.9l2.1,2.1l-0.9,2.1l3.1,4l3.8-1.2l4.9-0.5l5.6,6.1l3.8,10.1l-3.1,6.3l4.2-0.7l2.4,1.4l0.2,3.1
			l-5.2,0.2l2.8,2.8l3.5,0.7l-7.8,10.3l-0.9,6.3l1.6,5.2l-1.2,3.1l2.1,6.6l4,4.5l1.2-0.2l2.6-0.7l0.2,3.8l1.6,2.4l3.1-0.2l2.4-8.7
			l7.1-8.7l10.6-4.2l6.6-8.2l3,1.4h6.3l5.2-5.2l6.3-2.6l0.7-4l-4-3.5l-3.5-1.2l-1.9-4.9l4.5-2.6l7.1,3.8l2.4-2.6l-3.8-2.1l8-10.8
			l-1.4-4.7l-3.8-0.2l1.4-4.2l4.7-2.1l9.6-8.5l-2.8-3.1l-10.8,0.9l-5.6,5.6l3.3-7.3l-3.8-0.9l-2.1,3.8l-3.1-2.6l-8.5,0.9l2.4-3.8
			l13.9-0.5l-3.5-4.7l-15-2.8l-6.1,0.9l0.2,3.1l-6.3-2.1l0.2-2.1l-4.5,0.9l-0.9,2.4l4.7,1.6l-4.9,3.5l-3.5-4l-4.9-1.4l-0.7,3.8h-4.9
			l-1.9-4l-7.8-1.2l-4.2,2.1l-0.2,2.8l-5.4-0.7l-3.3,1.4l0.2,3.3V34l-6.1,1.2l-2.8-1.9l-1.9,3.1l2.8,3.1l5.9-0.7l0.5,1.9l-4.5,2.1
			L261.8,40.8L261.8,40.8z"/>
		<path d="M280.6,77.5l1.4,2.1l-0.7,2.6h-1.4l-1.9-2.1l0.5-1.6L280.6,77.5L280.6,77.5z"/>
		<path d="M339.4,71.6l4,1.2l-0.2,3.3l-4.2-2.1l-0.9-1.2L339.4,71.6L339.4,71.6z"/>
	</g>
	<path id="gm" d="M336,255.4l-0.1,1l6-0.1l0.3-0.9l-0.1-0.9l-1.7,0.7L336,255.4L336,255.4z"/>
	<path id="gn" d="M339,263.7l2.6,4l3.4-3l3.5-0.2l2.9,3.9l2.5,1.6l0.9-1.8l0.8-0.5l-0.1-4l-1.6-4.7l-5.1,0.6l-6.3-0.5l0,1.6
		L339,263.7L339,263.7z"/>
	<g id="gq">
		<path d="M396.4,280.5l-0.4,1.7l1.2,0.6l1.1-0.9l-0.4-1.8L396.4,280.5L396.4,280.5z"/>
		<path d="M400,285.1l-0.1,1.2l3.9,0.2l-0.1-1.4L400,285.1L400,285.1z"/>
	</g>
	<g id="gr">
		<path d="M422.2,185.6l-0.1,1.1l4,2l1.9,0.7l-1,1.1l-2.2,0.2l-0.3,1l0.8,1.7l2.5,1.3l1.1,0.1l0.1-3l1.6-2l-4.5-5.3l0.6-1.8l1,0
			l1.6,1.3l1-0.5l0.3-1.8l3.7,0.5l1.1-3.2l-2,1.4l-5.7-0.1l-3.7,1.9L422.2,185.6L422.2,185.6z"/>
		<path d="M430.9,196.9l1.4,0l0.6,0.9h2l1.4-0.5l0.5,0.6l-0.9,1.2l-4,0.1l-0.7-1l-0.8-0.5L430.9,196.9L430.9,196.9z"/>
	</g>
	<path id="gt" d="M152.7,249.5l5.1,3.8l5.2-6.4l-0.9-1.3l-1.8-0.1v-3.8l-1.3-0.8l-4,1.2l1.5,3.5L152.7,249.5L152.7,249.5z"/>
	<path id="gw" d="M337.4,260.8l1.2,2.4l3.4-2.9l0-0.9l-4-0.6L337.4,260.8L337.4,260.8z"/>
	<path id="gy" d="M230.6,269.1l6.2,5.7l-2.5,2.9l-0.2,1.7l3.3,3.4l-0.1,3.2l-5.7,2.2l-3.4-4.6l0.7-5.5l-1.5-4.1L230.6,269.1
		L230.6,269.1z"/>
	<path id="hn" d="M163.6,247.2l8-0.3l2.4,2.8l-1.5-0.3l-2.8,0.1l-3.7,3.5l-1.6,3.5l-1-0.6l0-3.9l-2.3-1.5L163.6,247.2L163.6,247.2z"
		/>
	<path id="hr" d="M412.6,166.2l-3.1,2.5h-3.1l-0.4,2.2l1.4,0.4l0.7-1.1l1.1,1l0.9,3.1l6.1,2.9l0.6-0.7l-6.2-6.4l0.6-1.2l5.9-0.2
		l0.6-1.9l-3.8,0.1L412.6,166.2L412.6,166.2z"/>
	<path id="ht" d="M201.1,235.6l3,0.3l-0.4,3.6l-0.3,1.9l-3.5-0.2l-0.6,0.9l-1.1-0.1l-0.4-2l3.7-0.3l-0.2-2.1l-1.7-0.7L201.1,235.6
		L201.1,235.6z"/>
	<path id="hu" d="M413.6,161.4l-1,1.6l0.1,2.4l1.6,0.8l4.9,0.1l6.9-5.8l0-1.3l-0.7-0.4l-5,2.2L413.6,161.4L413.6,161.4z"/>
	<g id="id">
		<path d="M608.8,272l-0.2,2l5.9,9.9h1.7l12.2,20.5l4.9,0.5l2.4-7.1l-3.9-2.5l-0.7-3.9L608.8,272L608.8,272z"/>
		<path d="M666.7,299.3l2,2.4l-1.3,3.6v0.7h2.9l1-9l0.9,0.3l1.7,8.2l1.6,0.4l1.5-3.5l-1.5-5.3l-1.3-2.3l4-2.9l-0.9-1.3l-3.8,2.5h-1
			l-1.9-2.7l0.6-1.2l3.1-1.5l4.8,1.5l1.4-0.1l3.6-3.3l-1.4-1.5l-3.3,2.6h-2.1l-3.2-1.5l-2.3,0.1l-2.5,4.1l-1.6,7.1L666.7,299.3
			L666.7,299.3z"/>
		<path d="M688,283.2l-1.6,3.9l2.5,3.3h0.8l1.1-2.2l0.6-0.8l-1.1-1.2l-1.6-0.6L688,283.2L688,283.2z"/>
		<path d="M693,296.1l-3.5,0.8l-1,1.1l0.8,1.5l2.3-0.9l1.4-0.9l2.1,1.7l0.9-0.8l-1.7-2.1L693,296.1L693,296.1z"/>
		<path d="M635.3,307.3l-2.4,1.6l0.5,1.4l7.6,1.7l3.8,0.7l1.6,1.7l4.3,0.3l2,1.7l1.9-0.4l1.7-1.5l-3.1-1.5l-2.7-2.3l-7.1-1.7
			L635.3,307.3L635.3,307.3z"/>
		<path d="M660,314.7l-1.9,1l1.1,1.2l2.7-1L660,314.7L660,314.7z"/>
		<path d="M663.2,313.9l0.3,1.6l2,0.5l0.8-0.9l-0.8-1.3L663.2,313.9L663.2,313.9z"/>
		<path d="M667.9,318.2l-2.4,0.3l2.1,1.8h1.7L667.9,318.2L667.9,318.2z"/>
		<path d="M668.6,315.4l-0.5,1l3.8,0.6l3-1.7l-1.7-0.5l-2.7,0.8l-1-0.9L668.6,315.4L668.6,315.4z"/>
		<path d="M681.1,316l-4.4,3.7l0.4,0.9l1.9-0.3l2.2-2.1l4.3-0.6l-0.8-1.5L681.1,316L681.1,316z"/>
		<path d="M703.4,290.9l-3.6,0.4l-2.3,1.7l1,1.9l3.9,0.7v0.7l-2.5,2l1.2,4.2l1.2,0.1l1-4.1h1.9l0.8,4l9.4,7.7l0.2,6.1l3.2,3.5
			l1.4-0.1l0.3-21.4l-5.4-3.8L710,298l-1.8,1.1l-3-1.9l-0.1-6.1L703.4,290.9L703.4,290.9z"/>
		<path d="M659.9,277.9l-2,7.5l-10.8,3.7l-3.2-3.8l-1.6,0.4l2.9,11.3l4.4,0.5l5.9,2.2v2.2l2.7-0.5l3.9-5.4v-4.4l2.2-4.4l2.4,0.5
			l-2.9-6.2l-0.4-4L659.9,277.9L659.9,277.9z"/>
	</g>
	<path id="ie" d="M364.1,141.5l-0.8,5.2l-7,2.6h-2.2l-1.6-1.1v-1l3.5-2.2l-1-1.9l0.2-2.7l3,0.2l1.4-3.2l-0.2,2.9l2.3,1.9
		L364.1,141.5L364.1,141.5z"/>
	<path id="il" d="M455.6,203.3l-1.4,4.3l1.8,5.2l2-7.6v-1.6L455.6,203.3L455.6,203.3z"/>
	<path id="in" d="M564.2,268.1l4-1.9l2.4-8.5l-0.1-10.4l13.5-14.5v-3.4l2.8-1.1l-0.1-4l-3-5.8l1.7-3.1l3.7,3.4l4.8,0.2v1.9l-1.5,1.6
		l0.3,0.9l2.6,0.1l0.5,2.9h0.8l1.9-3.4l1-9l3.2-2.3l0.1-3.1l-1.3-2.5l-2-0.1l-8,5.3l0.5,3.4l-5.6,0l-2-2.4l-1.1,0.1l0.4,3.4
		l-12.1-0.9l-7.5-3.3l-0.4-4.1l-5-3.1l-0.1-6.4l-3.4-3.9l-7.9,0.8l0.9,3.4l3.9,3.1l-6.7,13.6l-4.5,0.3l-0.7,1.6l4.4,4.1l-0.2,4.1
		l-4.5-0.1l-0.5,2l3.7-0.2l0.1,1.6l-2.7,1.4l1.7,3.2l3.3,1.1l2-1.5l1-2.7l1.2-0.5l1.4,1.4l-0.4,3.4l-1,1.6l0.2,2.8L564.2,268.1
		L564.2,268.1z"/>
	<path id="iq" d="M472,192l-1.3,6.7l-5.6,4.6l0.4,2.2l5.5,0.4l8.7,7.1l4.9-0.1l0.1-1.6l1.8-1.9l2.5,1.4l0.3-0.3l-4.8-6.4l-2.3-0.1
		l-3-3.9l0.6-2.9l0.9-0.1l0.3-1.3l-4.1-4.3L472,192L472,192z"/>
	<path id="ir" d="M476.6,185.9l-1.1,1.1l0.1,1.7l1.3,1.8l4.7,5.1l-0.7,2h-0.8l-0.4,2l2.6,3.4l2.4,0.2l4.9,6.7l2.7,0.2l2.1,1.5
		l0.1,3.1l8.4,4.9h3.1l1.9-1.6l2.4-0.1l1.4,3.3l9.1,1.3l0.3-3.3l3-1.1l0.1-1.2l-2.4-3.3l-5.3-4.3l2.8-2.5l-0.2-1.1l-3.5-0.5
		l-1.5-11.8l-0.2-2.7l-9.5-3.6l-4.2,1l-2.4,2.9l-2.1-0.1l-0.6,0.5l-4.7-0.3l-5.9-4.3l-2.2-2.4l-1,0.2l-1.8,2.1L476.6,185.9
		L476.6,185.9z"/>
	<path id="is" d="M335.5,98.9l-1.7-1l-2.3,1.4l-2,1.8l0.1,1l2.5,0.3l-0.2,1.8l-0.9,0.9l0.2,0.6l2.5,0.2v2.9l3.7,0.6l2.2,1.2l2.4,0.1
		l4.2-2.1l3.2-4.3l0.1-2.9l-2-1.7l-1.6-1.4l-0.7,0.5l-1.1,1.4l-1.3-0.2l-1.3-1.4l-1.6,0.2l-2.4,2l-1.4,1.5l-0.8-0.7l-0.1-1.7
		l0.8-0.5L335.5,98.9L335.5,98.9z"/>
	<g id="it">
		<path d="M392.5,167.8l-0.5,1.4l0.1,1.5l2.1,2.4l3.2-0.1l7.2,8.3l4.5,1.3l2.6,2.5l0.6,5.7l1.4-0.8l1.2-3.1l-0.3-2.2l2.1-0.2
			l0.3-1.3l-5.9-2.8l-5.6-5.5l-2.2-3.3l-0.5-3.1l2.9-0.7l-0.7-2.1l-1.8-1.5l-1.5-0.1l-2.1,0.6l-2,2.8l-1.2,0.8l-1.9-1.1L392.5,167.8
			L392.5,167.8z"/>
		<path d="M409.9,190.3l-1.3-0.7l-4.3,0.7l0.1,1.2l3.8,1.9l0.6,0.6l1,0.1L409.9,190.3L409.9,190.3z"/>
		<path d="M397,182l-2.3,1.2l0.3,4.5l1.8,0.3l1.4-1.3v-4.2L397,182L397,182z"/>
	</g>
	<path id="jm" d="M190.8,239.2l-3,0.8v0.8l1.8,1h1.8l1.2-1.3L190.8,239.2L190.8,239.2z"/>
	<path id="jo" d="M458.7,205.7l-2.1,7.4l-0.1,1.1h3.3l3.7-3.3l0.1-1.3l-1.5-1.6l2.7-2.3l-0.4-2.1l-0.8,0.2l-2.3,1.6L458.7,205.7
		L458.7,205.7z"/>
	<g id="jp">
		<path d="M678.5,184.6l-1.4,1.4l0.6,2l1.2,0.1l0.8,4.3l1,1.1l1.7-1.6l0.2-4.8l-2-2.1L678.5,184.6L678.5,184.6z"/>
		<path d="M685.9,180.6l-2.7,2.2l-0.6,2.7l1.8,1.2l2.6-2.8l0.4-3.1L685.9,180.6z"/>
		<path d="M682.8,176.4l-4.2,4.8v2.3l2.6-0.3l4.1-3.6l2.7-0.5l0.7,0.8l0,2.4l0.7,1.2h1.3l1.8-2.2l0.7-2.8l3.6-0.1l3.5-4.2l-1.8-6.9
			l-0.8-3.7l1.8-1.5l-4.1-6.2l-0.9-0.7l-1.9,0.7l-0.5,2.6v2.1l1,1.2l0.3,5.5l-2.6,3.2l-1.5-0.9l-1.2,2.6l-0.3,2.4l0.9,1.4l-0.6,1.1
			l-1.9-1.6h-1.3l-1.2,0.7L682.8,176.4L682.8,176.4z"/>
		<path d="M690,138.8l-1.3,1.2l0.7,2.5l1.2,1.2l-0.1,3.8l-1.5,0.6l-1.2,2.6l3.4,4.7l2.2-0.8l0.4-1.2l-2.4-2.2l1.5-1.9l1.6,0.2
			l3.4,2.3l0.4-2.6l1.6-3l2.3-2.3l-2.5-1.1l-0.9-1.8l-1.2,0.8l-1.1,1.3l-2.3-0.5l-2.4-1.6L690,138.8L690,138.8z"/>
		<path d="M702.4,136.2l-2.3,3.2l0.2,1.6l1.2-0.5l2.7-3.4L702.4,136.2L702.4,136.2z"/>
		<path d="M705.5,131.5l-0.8,2.2l0.1,1.5l1.4-0.9l1.3-2.7v-1L705.5,131.5L705.5,131.5z"/>
	</g>
	<path id="ke" d="M460.4,279.8l2.3,4.5l-2.8,5.8l-0.4,1.8l13.8,8.5l4.3-6.7l-2.2-1.8l0-8.8l2.7-3l-4.3,1.4l-3.3,0l-5.1-4.3l-1.6-0.7
		l-3,0.3l-0.5,0.9L460.4,279.8L460.4,279.8z"/>
	<path id="kg" d="M534.7,169.7l-0.3,2.2l0.2,1.4l7.5,2.5l-6.6,2.7l-0.8-0.6l-1.4,0.9l0.1,0.5l0.8,0.3l4.6,0.1l2.4-0.7l3-3.8l3.8,0.7
		l4.6-6.3l-12.2-1.7l-1.7,4.1l-2.1-2.3L534.7,169.7L534.7,169.7z"/>
	<path id="kh" d="M624.3,256.4l3.5,3.8l6.6-4.9l0.6-7.7l-3.4,2.3l-1.8-1l-2.4-0.3l-1.3-0.9l-0.6,0l-1.8,2.9l0.3,1.3l1.8,1l-0.2,2.7
		L624.3,256.4L624.3,256.4z"/>
	<path id="km" d="M483.6,318.4l0.4,1.3l1.7,0.3l0.7-1.7L483.6,318.4L483.6,318.4z"/>
	<path id="kp" d="M657,165.5l1.6,0.7l0.5,5.6l3.2,0.2l3-3.5l-1-0.9l0.1-3.7l2.7-3.3l-1.4-2.5l0.9-1l0.5-2.6l-1.6-0.7l-1.3,0.7
		l-1.7,5.1l-2.7-0.2l-3.1,3.7L657,165.5L657,165.5z"/>
	<path id="kr" d="M665.7,168.9l5.3,4.4l0.9,4.2l-0.2,2.3l-2.6,2.9l-2.2,0.1l-2.6-5.5l-1-2.6l1-0.8l-0.2-1.1l-1.3-0.6L665.7,168.9
		L665.7,168.9z"/>
	<path id="kw" d="M488.4,211.2l-1.9-1.1l-1.3,1.4l0.1,2.7l3.1,1.2L488.4,211.2L488.4,211.2z"/>
	<path id="kz" d="M482.7,160.6l3.5-1.5l4-0.1l0.3,6.1h-2.3l-1.8,2.9l2.3,3.8l3.4,1.9l0.3,2.2l1.3-0.4l1.2-1.4l1.9,0.4l1,1.9h2.5
		v-2.5l-1.5-4.4l-0.7-3.6l4.4-1.9l5.9,1l3.7,3.7l8.3-0.8l4.6,6.6l5.5,0.3l1.5-2.5l1.9-0.4l0.3-2.7l2.9-0.1l1.5,1.8l1.5-3.6l13,1.8
		l2.2-2.9l-3.7-4.5l4.9-10.7l4,0.3l2.7-6.6l-5.5-0.6l-3.1-3l-8.6,1l-11.1-10.8l-3.9,3.5l-11.9-5.4l-14.6,7.1l-0.4,5.1l3.4,4
		l-6.7,3.8l-8.6-0.2l-1.8-2.7l-6.8-0.4l-6.4,4.1l-0.1,5.6L482.7,160.6L482.7,160.6z"/>
	<path id="la" d="M620,224.8l-2.1,1.1l-1.7,5.1l2.9,3.7l-0.5,4.1l0.5,0.2l4.8-2.3l6.5,7.2l-0.2,4.6l1.4,0.8l3.5-2.8l-0.3-2.2
		l-10.1-9.6l0.1-1.5l1.3-0.9l-0.9-2.4l-4.2-0.7L620,224.8L620,224.8z"/>
	<path id="lb" d="M456.4,198.4l0.1,1.7l-0.7,2.6l2.4,0.2l0.2-3.6L456.4,198.4L456.4,198.4z"/>
	<path id="lc" d="M228,251.7l-0.6,1.3l1,1.1l1.3-0.7L228,251.7L228,251.7z"/>
	<path id="lk" d="M572.5,263.8l0.2,2.4l0.2,1.7l-1.3,0.2l0.6,3.8l1.9,1.1l3-1.7l-0.8-4.1l0.2-1.5l-2.8-2.6L572.5,263.8L572.5,263.8z
		"/>
	<path id="lr" d="M347.4,273.4l9.5,6.3l-0.2-4.8l-2.9-3.4l-2.8-2.5L347.4,273.4L347.4,273.4z"/>
	<path id="ls" d="M440.1,365.2l2.6-2l1.2,0.1l1.5,1.9l-0.2,1.9l-2.5,0.9v0.7l-2.8-0.2l-0.7-2L440.1,365.2L440.1,365.2z"/>
	<path id="lt" d="M421.4,133.6l-2.1,0.4l0.2,2l3.4,0.2l1.3,1l0.3,1.8l1,1.4l3.1-0.1l2.9-3.7l-0.2-2.2l-5.5-0.9L421.4,133.6z"/>
	<path id="lu" d="M389.7,156l0.8,0.7l0.9,0.1l0.2-1.7l-0.3-1l-1.2,0.6L389.7,156z"/>
	<path id="lv" d="M432.1,128.4l-6.4-1l-1.1,2.8l-1.8,0.5l-1-1.2l-1-1.8l-1,0.8l-0.6,3.1v1.7l2.2-0.4l4.7,0.1l5.6,1l2.2-0.7l-0.1-2.5
		L432.1,128.4L432.1,128.4z"/>
	<path id="ly" d="M399.2,211.9l1.4-0.2l0.4-3.1h0.7l2.8-4.5l6.8,2l1.9,2.9l6.7,3.1l3.5-1.5l-0.3-1.5l-1.5-1.5l0.2-1l2.5-2.1h4.9
		l1.9,2.5l3.9,0.6l0.5,31.9l-2.9-0.1l-17.7-9.2l-1.9,1.1l-7.3-1.8l-2-2.6l-2.9-0.4l-1.5-2.6L399.2,211.9L399.2,211.9z"/>
	<path id="ma" d="M371.7,198.3h-10l-2,4.3l-4.5,2.2l-3.7,10.1l-7.2,4.3L334.2,236l10-0.2l0.4-4.9h2.5v-6.7h8.8l0.2-8.7l8.4-2
		l3.5-5.7l5.5-0.2L371.7,198.3L371.7,198.3z"/>
	<path id="md" d="M434.4,159.8l2.7,4.1l-0.2,2.3l1,0l2.3-3.8l-2.7-3.4l-1.5-0.6L434.4,159.8L434.4,159.8z"/>
	<path id="me" d="M418.9,175.1l-1.3,1.8l0.4,1.1l1.5,0.3l1.2-1.6L418.9,175.1z"/>
	<path id="mg" d="M496.2,319.9l-1.8,4.4l-3.2,5.6l-5.5,0.4l-2.4,2.8l0.4,8.5l-3.4,4l0.4,6.8l2.9,3.3l3.4-0.4l3.4-2.5l-0.8-4
		l7.9-13.7l-1.6-1.7l1.6-3.3l1.7,0.5l0.5-1.3l-1.6-6.8l-0.9-2.8L496.2,319.9L496.2,319.9z"/>
	<path id="mk" d="M425.9,177.3l-2.9,1l0.1,2.5l0.7,0.9l3.5-1.6L425.9,177.3L425.9,177.3z"/>
	<path id="ml" d="M346.8,253.3l2.7-1.8l14.8-0.1l-3.4-23.8l3.9-0.1l18.9,14.4l2.5,0.4l-1,8l-11.9,1.1l-9.2,6.8l-1.7,4.7l-6.4,0.3
		l-1.6-4.7l-4.9,0.3l0.2-1.5L346.8,253.3L346.8,253.3z"/>
	<path id="mm" d="M614.8,260l-2.4-3.8l1.7-2.4l-1.6-3l-1.5-0.3l-0.3-5.1l-2.3-4.5l-0.7,1.1l-1.5,2.6l-1.9,0.3l-1-1.3l-0.5-3.4
		l-1.5-2.7l-5.9-5.6l1.5-1l0.3-4l2.2-3.6l0.9-9l3.1-2.1l0.1-3.3l1.9,0.6l3,4.3l-2.2,4.7l1.5,3.7l3.7,1.4l0.7,4l4.9,0.8l-1.4,2.3
		l-6.2,2.4l-0.7,4l4.5,5.8l0.2,3.1l-1.1,1.1l0.1,1l3.4,5l0.1,5.2L614.8,260L614.8,260z"/>
	<path id="mn" d="M566.7,144.6l5-6.7l6,2.8l4.1,1.1l5-4.6l-3.4-2.5l2.2-3.2l6.7,2.4l2.3,3.8l4.2,0.1l2.2-1.6l4.5-0.2l1,1.7l7.5,0.4
		l4.8-4.8l6.6,0.7l-0.4,6.6l2.9,0.7l3.5-1.6l3.7,1.9l-0.1,0.9l-2.7,0.1l-2.8,5.9l-2.2,0.2l-8.5,11.2l-8.7,3.8l-5.5,0.4l-4.5-2.9
		l-5.8,3.1l-5.7-1.8l-1.6-4.1l-10.8-0.8l-5.5-9.4l-2.7-0.2L566.7,144.6L566.7,144.6z"/>
	<path id="mr" d="M334.2,236.7l1.9,2.5l-0.4,10.6l2.7-2l2-0.4l2.7,1l3.1,4.3l2.9-2l14.3-0.2l-3.5-23.9l3.8,0l-7.1-5.4l0,3.5l-8.9,0
		l0,6.7l-2.6,0l-0.3,4.9L334.2,236.7L334.2,236.7z"/>
	<path id="mt" d="M410,196.7l-1.4,0.3l0.1,1.6l1.3,0.4l0.6-0.5L410,196.7L410,196.7z"/>
	<path id="mu" d="M514.1,342.4l-1.3,1.7l0.3,1.9l2.8-2.3L514.1,342.4L514.1,342.4z"/>
	<g id="mv">
		<path d="M551.6,274.8l0.3,2.3l1.4,0.5l0.3-2L551.6,274.8L551.6,274.8z"/>
		<path d="M553.5,279.6l-0.1,2.8l1.1,0.5l0.9-1.9L553.5,279.6L553.5,279.6z"/>
		<path d="M553.7,285l-0.9,0.9l1.1,0.9l1.3-0.9L553.7,285L553.7,285z"/>
	</g>
	<path id="mw" d="M457.2,325.5l2.7,2.8l-0.1,3.6l0.5,1.5l3.6-3.9l-0.4-4.9l-1.9-1.5l-1.7-8.6l-2.9-0.1l1.3,6.2L457.2,325.5
		L457.2,325.5z"/>
	<path id="mx" d="M103.1,192.4l4.2,13.1l-1.9,1.1l0.2,2.6l3.7,2.8v5.2l4.5,4.4l-1.9-12.8l-2.6-8.5l0.6-5.9l2.2,0.2l0.9,2l-0.9,5
		l11.2,22v7.8l9.1,10.7l9.9,4.6l4.1-2.4l5.8,4.8l3.5-3.5l-1.5-3.9l5-1.5l1.5,0.9l1.5-1.5h2.4l4.3-7.6l-2.2-2l-8.4,2l-1.9,5.7l-5,0.9
		l-5.8-2.4l-2.6-8.3l2-10.4l-4-2.5l-1.9-10l-1.6-0.7l-2.9,3l-3.4-1.8l-1.3-6.7l-13.3-1.4l-6.9-5.2L103.1,192.4L103.1,192.4z"/>
	<g id="my">
		<path d="M617.6,270.2l1.7,3.9l0.4,5.1l2.3,3.6l5.1,3.1l1-0.8l1.5-0.3l-0.2-1.9l-1.8-4.5l-2.7-5.7l-0.2,1l-3.2-0.1l-2.3-3.4
			L617.6,270.2L617.6,270.2z"/>
		<path d="M644.8,285.3l2.6,3l10-3.5l2-7.6l4.5-0.3l4.1-3l-5.3-3.9l-1.2-2.1l-2.6,4.8l1,2.8l-1.6,2.3l-3-0.8l-7.3,5.3l0.2,3.1
			L644.8,285.3L644.8,285.3z"/>
	</g>
	<path id="mz" d="M452,354.8l2.3,1.9l5.5-3.3l0.9-5v-8.2l8.8-7.2l1.5,0.1l5.3-5.1l-0.8-10.5l-13.8,1.7l0.5,3.3l2,1.8l0.6,5.7
		l-4.8,4.6l-1.1-2.6l0.2-3.4l-2.7-3l-6.7,3.1l6.3,3.2l0.2,9.3l-4.1,6.1L452,354.8L452,354.8z"/>
	<path id="na" d="M413.5,362.3l2.9,0.2l1.7,1.7l4,0.1l1-11.5v-7.5l2.6-0.5l1-7.9l6.6-0.2l2.3-1.9l-3.9-0.2l-5.3,0.7l-5.7-2.1h-16.1
		l0.4,4.6l5.4,7.9l-0.9,4.1l0.1,2.1L413.5,362.3L413.5,362.3z"/>
	<path id="nc" d="M767.9,361l-0.3,1.5l4,5.6l2.1,0.9l0.3-2.2L767.9,361L767.9,361z"/>
	<path id="ne" d="M382.6,258.6l2.2-0.1l2-3l3.3-0.6l3.6,2.2l7.6,0.2l5.9-2.4l2.2-1.9l0.2-2.5l4.1-4.1l1.1-9.1l-2.7-5.6l-6.9-1.7
		l-15.9,12.4l-2.3-0.2l-1,8.6l-8.1,0.8L382.6,258.6L382.6,258.6z"/>
	<path id="ng" d="M383.2,273.6l3.4,0.2l4.1,4.6l2,0.5l1.6-0.8l2.4-0.3l0.8-3.3l3.2-2.1l3.5-0.2l6.4-11.8l-0.1-2.7l-3-2.3l-5.9,2.6
		l-7.9-0.1l-3.8-2.4l-2.7,0.6l-1.4,2.4l-0.1,6.9l-2.3,3.2L383.2,273.6L383.2,273.6z"/>
	<path id="ni" d="M172.4,250l1.9,0.4l0.1,3.9l-2.2,6.3l-5.9-0.6l-1.3-3l1.8-3.7l3.3-3.1L172.4,250L172.4,250z"/>
	<path id="nl" d="M390.6,143l-3.9,1.9l0.8,0.8l0.1,1.9l-0.8-0.2l-0.9-1.4l-2.2,3.5l3.4,0.7l1.3,1.3l0.7,0l0.4-3l2.1-0.9L390.6,143
		L390.6,143z"/>
	<g id="no">
		<path d="M429.8,85.8l1.7-1.3l-0.2-1.4l-1.1-0.6l0.2-1.8h1v-1l-4.1-1.1l-6.2,0.6l-0.6,2.7l-1.4-0.5l-1-1.6l-3,0.2l-0.3,3l-1.4,0.6
			l-0.8-1.6l-6.3,5.1l1.3,1.4l-2.4,1.1l-5.4,10.7l-1.9,1.3l0.2,1l1.9,1l-0.5,2.1l-3.2-0.2l-1-1.1l-2.1,2.4l-1.3,1l-0.3,2.2l-1.1,0.6
			l-2.9,0.6l-1.4,4.5l1,7.3l1.1,3.4l1.3,1.3l2.9-0.2l4.1-4l1.6-2.7l0.5,4l2.7-4.8l0.2-13.4l2.2-1.4l0.7-7.4l6.7-9.6l3.2-1.1l1.4-1.8
			l4.8,1.1l2.4,1.4l0.8-4l4-2.4L429.8,85.8L429.8,85.8z"/>
		<path d="M406.3,44.2l-1.4-1.4l-3.2,1.5h-5.8l-0.9,3.4l3.3,2.9l1.4-0.2l2-3.5l1.7,1.2l-1.2,2.5l-0.6,3.6l1.4,2.3l3.1-5.1l4-4.8
			l-1.5-1.3L406.3,44.2L406.3,44.2z"/>
		<path d="M408,38l-2.5,2.4l1.5,2.4h2.7l1.1,1.5l3.4,1.7l3.9-2.3l2.7-2.3l-0.9-1.9l-2.7-1.5l-1.9,1.7l-1.3-1.6l-1,0.1l-1.3,2.9
			l-1.9-2l-0.2-1.3L408,38L408,38z"/>
		<path d="M413.8,48.6l-2,1.9l-1.7,1.3l0.8,1.4l1.6,0.5l2.7-1.2l1.2-1.5l-1.1-1.9L413.8,48.6L413.8,48.6z"/>
	</g>
	<path id="np" d="M564.4,207.2l0.4,3.7l7,3.2l11.2,0.8l-0.4-2.7l-7.5-2.1l-6.3-3.8L564.4,207.2L564.4,207.2z"/>
	<g id="nz">
		<path d="M773.5,414.1l0.9,10.2l-1.2,4.6l-4.6,3.4l0.3,4v4.3l1.2,1.5l12.6-10.8V429h-3.1l-4.3-14.5L773.5,414.1L773.5,414.1z"/>
		<path d="M764.3,436.4l2.5,4.6l-6.8,6.5l-0.6,3.4l-4.6,0.6l-7.7,7.1l-7.1-3.4l-0.6-2.5l12.9-5.6L764.3,436.4L764.3,436.4z"/>
	</g>
	<path id="om" d="M501.5,240.3l6.4-3.7l1.1-5.4l-1.4-0.8l0.6-5.8l1.2-0.7l1.3,2l7.8,4.1v2.3l-9.4,13.9l-4.3,0.1L501.5,240.3
		L501.5,240.3z"/>
	<path id="pa" d="M174.9,265.2l-1.3,3.9l4.2,1.1l2.6,0.5l0.4-3.1l2.8-1.4l2.5,1.3l1,1.5l1.2-0.1l0.9-2.8l-3.1-1.3l-2.3-1.3l-2.3,1.6
		l-2.8,1.4l-2.8-1.1L174.9,265.2L174.9,265.2z"/>
	<path id="pe" d="M178.8,299.7l-1.7,1.7l0.1,2.7l14.6,26.7l15.2,9.8l2.4-3.9l0.6-8.7l-1.2-5.4l-4.1-7l-2.5,0.8l-1.1,1.2l-4.9-5.6
		l1.2-6.6l5.7-3.7l-0.4-3.5l-5.8-0.2l-3-5.1l-1.7-0.6l0.1,3l-7.5,8.9l-5.6-1.3L178.8,299.7L178.8,299.7z"/>
	<g id="pg">
		<path d="M721.4,298.6l-0.3,21.1l3-0.2l4-4.7l3.4,0.2l2.2,1.9l0.7,6l6.9,3.6l1.8-0.6v-2.2l-5.5-4.6l-2.7-6.3l2.2-1l-1.6-3.5
			l-3.2-0.1l-0.8-3.7l-8.5-5.7L721.4,298.6L721.4,298.6z"/>
		<path d="M747.4,304.4l-0.8,0.2l-0.5,2.2l-1.6,1l-4.7,0.8l0.2,1.8l5-0.2l3.2-2l-0.2-3.4L747.4,304.4L747.4,304.4z"/>
		<path d="M745.3,299.2l-0.8,1.1l4.2,3.7l0.6,2.2l1.1-0.1l0.1-2.2l-1.3-1.1L745.3,299.2L745.3,299.2z"/>
	</g>
	<g id="ph">
		<path d="M666.6,254.7l-0.7,1.4l-0.4,1.7l-4.1,5.2l0.2,1.1l1.7-0.3l5.4-6L666.6,254.7L666.6,254.7z"/>
		<path d="M673.3,252.7l-0.1,4.3l1.6,1.6l0.6,3.1l1.6,0.3l0.7-1.9l-1.2-0.9l-0.3-5.4L673.3,252.7L673.3,252.7z"/>
		<path d="M677.7,254.4l-0.1,3.8l0.9,1.5l1.6-1.8l-0.4-3.3L677.7,254.4L677.7,254.4z"/>
		<path d="M678.7,251l1.6,2.1l0.7,2h1.4l-0.2-3.4l-1.6-1.1L678.7,251L678.7,251z"/>
		<path d="M681.8,258.9l0.3,2.5l-2.9,2.3l-2.4,0.3l-2.6,2.7l0.1,1.3l2.4-0.8l1.7-1.1l1.4,3.6l2.5,1.7l1-0.3l0.9-1.1l-2-2l1.2-0.9
			l1.3,1.1l0.9-1.5l-0.9-1.8l-0.2-4.1L681.8,258.9L681.8,258.9z"/>
		<path d="M668.3,233.5l-2.2,1.6l-0.2,5l3.5,6.7l1.2,0.9l1.5-1l2.6,0.4l0.5,2.2l1.9,0.2l0.9-1.2l-1.2-1.6l-1.4-1.3l-3-0.3l-1.6-2.6
			l1.8-2.7l0.2-2.4l-1.2-3.1L668.3,233.5L668.3,233.5z"/>
		<path d="M669.5,248.4l0.7,2.3l1.2,0.8l0.8-1.1l-1.3-1.8L669.5,248.4L669.5,248.4z"/>
	</g>
	<path id="pk" d="M522.9,213.5l2.2,3.3l-0.2,1.7l-3,1.2l-0.2,2.8h3.4l1.2-1h6.5l5.9,5.2l0.8-2.5h4.4l0.1-3.1l-4.5-4.3l1-2.4l4.6-0.3
		l6.2-12.9l-3.4-2.7l-1.3-4.5l8.3-0.8l-4.9-7l-2.6-0.7l-1.1,1.3l-0.8,0.1l-4.9,3.1l1.6,2.7l-1.8,1.9L538,203l-5.6,3.6l-0.8,3.9
		L522.9,213.5L522.9,213.5z"/>
	<path id="pl" d="M426.3,148.6l0.7,1.3l0.2,1.4l-0.6,1.4l-1.4,2.7l-1.2,0.5l-1.5-0.7l-0.9,0l-2.2,0.8l-2.5-0.7l-4.1-2.9l-4-2.1
		l-1.6-2.4l-0.3-5.8l3.1-2.7l4.1-1.4l1.3-0.1l0.3,1l1.7,0.7l4.8,0.1l1.5,0l2.4,3.7l-0.6,1.5l0.3,1.8L426.3,148.6L426.3,148.6z"/>
	<path id="pr" d="M218.5,240.5l-2.3-0.8l-1.8,1.1l0.9,1.1l3.1,0.5L218.5,240.5L218.5,240.5z"/>
	<g id="pt">
		<path d="M356.7,180.1l-0.5,7.5l-1.5,1.4l0.2,0.8l1.1,1.8l-0.7,2.2l1.1,0.4l2.7-0.3l-0.2-2.2l1.8-10l-0.4-1.4L356.7,180.1
			L356.7,180.1z"/>
		<path d="M337.1,201.9l-0.9,1.2l0.9,1.2l1.4-0.7L337.1,201.9L337.1,201.9z"/>
		<path d="M306.3,185.1l-1.2,1.2l2.1,1.2l0.2-1.6L306.3,185.1L306.3,185.1z"/>
		<path d="M312.7,184.4l-1.4,0.9l1.2,0.9l1.9-0.5L312.7,184.4L312.7,184.4z"/>
		<path d="M313.6,187.7l-0.7,1.9l0.9,1.2l1.2-0.9L313.6,187.7L313.6,187.7z"/>
		<path d="M319.2,191.5l-0.5,1.2l0.7,0.7l1.9-1.2L319.2,191.5L319.2,191.5z"/>
	</g>
	<path id="py" d="M236.4,342.9l1.9,2.1l-0.2,4.4l5.5-0.3l4.1,5.3l-0.3,4.7l-2.7,4.1l-5.5,0.2L239,361l1.6-3.7l-5.4-3.4h-4.5
		l-3.4-3.6l2.4-7L236.4,342.9L236.4,342.9z"/>
	<path id="qa" d="M496.5,221.4l-0.4,3.5l1.3,1l1.2-0.1l0.5-4.4l-1-0.8L496.5,221.4L496.5,221.4z"/>
	<path id="ro" d="M427,159.7l-0.2,1.3l-5,4.2l4.2,6.1l2.7,1.9h4.8l1.6-1.3l2.1-0.3l1.6,1l2.8-3.2l-0.5-1.6l-2.9-0.7l-2-0.1l0.1-2.7
		l-2.6-4.1L427,159.7L427,159.7z"/>
	<path id="rs" d="M421.2,165.7l-1.8,1.3h-0.9l-0.6,1.8l2.1,2.4l0.1,1.9l-0.9,1.2l3.1,3.2l3.3-1l-0.3-4.7L421.2,165.7L421.2,165.7z"
		/>
	<g id="ru">
		<path d="M691.3,60.6l1.5,5.3l3,0.9l3-4.8l-1.7-3.3l0.6-2.8h4.6l-1.1,2.2l0.4,7.9L695.2,82l0.6,3.5l-0.2,5.9l12.2,17.7l2.4,0.7
			l0.2-14.4l2.4-2.2l-2.6-5.7l2.2-2.4l-4.8-6.3L705,79l-0.9-10.5l6.7-1.8l0.4-3.1l3.5-0.9l2,1.8l2.4-9.6l4.1-7l3.3-1.8l2.8,0.2v-3.3
			l-4.6-0.9l-6.3-5.3l3-3.5l-2.6-5.9l2.2-2.2l2.6,3.5l6.5,2.4l7.2,0.7l0.9-3.1l-3.7-3.7l4.1-5.7l-9.3-3.3l-2.4,4.8l-3-3.9l-17.2-5.9
			L690.4,14l-2.4,1.3v1.3l3.5,1.8l-0.4,4.2l-6.3-2.6l-13.9,5.5l-2.4-5h-9.6l-4.3,4.6l-15.4-3.5L625,24.3l-1.7,4.4l2.2,0.7l-0.2,3.3
			l-13.7,1.5l0.9,4.4l-12.6-2.2l3-5.7L590,29.9l1.1,5.9l-4.1,2l-3.5-3.3L569.4,37l-5.4,5l-0.2,3.1l-3.5,0.2l-0.4-3.5l11.1-9.6v-6.6
			l-7.2-2l-9.3,3.1l-3.9-3.9h-1.7l-2.2,4.4l1.7,2L536,35.8l-10.6,8.1l-6.5,9v3.7l6.9,2.8l-3.5,2.6l-7.4-2.6l-3,2.6l-4.6-5.3l-0.9,2
			l5,15.8l1.3,0.4l3.5-1.8l1.7,1.3v2.8l-3.3-1.3l-2,1.5l1.3,2.8l-1.1,7.4l-6.7,0.7l-0.4-2.4l3.9-2.4l0.9-6.6l-4.3-5.7l-1.5-9.8
			l-6.9-1.1l-0.6,3.5l1.3,1.8l-2.8,2.4l1.1,6.6l4.1,1.8l0.9,4.8l-4.1-2.6l-10.6-2l-1.3,3.5l-8.5,3.1l-1.3-2.2l-11.1,6.1l-0.2,4.2
			l-4.3,0.7l1.3-3.1V86l-4.3-1.5l-2.8,1.1l2.4,4.6l1.7,3.1v2.4l-3.3-0.7l-0.6-0.7l-3.3,3.5l1.7,3.1l-7.4-0.2l2.4,3.1l-0.6,1.3h-3.9
			l-2.8-2l-0.6-5.5l-4.6-1.8v-2.2l9.6,2l5.2,0.4l2.2-3.3l-2-3.5l-13.9-5.5l-4.8,1.2l-1.6,1.4l0.5,3.2l2,0.4l-0.5,5.1l6.3,14.8
			l-4.5,7.2l-0.3,1.6l2.3,1.6l-2.1,1.4l-1.4,0l0.3,6.4l1.9,2.7l0,2.6l2.4,0.2l3.7,1.4l4,5.4l0,1.4l-1.3,2.2l3-0.2l2.9,0.8l3.9,5.5
			l9.6,0.9l-0.4,6.6l-3.3,2.8l0.7,1.1l-3.3,3.5l-0.9,3.3l2,2.8l6.3,2.2l2.6-1.5l16.7,6.3l0.6-1.8l-3.5-3.3v-4.2l-2.2-0.7l0.4-3.5
			l3.5-4.2l-6.2-4.7l0.4-6.5l6.7-4.4l7.8,0.4l1.3,2.4l8,0.4l5.9-3.3l-3-3.3l0.6-6.1l15.2-7.4l11.7,5.3l3.9-3.5l11.5,10.9l8.7-0.9
			l3,3.1l8.3,0.9l5.4-7.4l6.9,3.1l3.7,0.7l3.7-3.3l-3.3-2.2l2.8-4.4l8,2.6l1.7,3.5l3.5,0.2l2.2-1.5l5.9-0.2l0.6,1.5l6.7,0.4l4.6-4.8
			l9.3,1.1l2.8-1.1l0.9-5.3l-2.8-6.3l2.8-2.4h8.9l8.5,10.1l10.9,6.1h3.3l0.4-2.6l3.9-2.4l0.4,14.2l-3.5,0.2v3.5l2,2.4l-0.4,3.1
			l1.4,0.6l0.9-2.2l1.3,0.4l0.9,0.9l3.9-0.9l3.9-11.4l0.4-14.2l-5-11.4l-6.3-7.7l-3,0.4v2.4l-7.4-2.8l2.8-6.1l2.4-16.2l10-3.1
			l4.8-3.1h5.2l-1.3,1.8l1.3,2.2l4.6-4.8l2.6,0.2l-0.4-2.8l-4.1-0.9l2.8-10.3L691.3,60.6L691.3,60.6z"/>
		<path d="M419.3,136.7l-1.3,2.4l4.7,0h1l-0.2-1.4l-0.7-0.9L419.3,136.7z"/>
		<path d="M710.4,111.7l-1.1,1.3l0.1,2.1l1-0.1l1.7-2.9L710.4,111.7L710.4,111.7z"/>
		<path d="M746,30.7l-2,1.3l-0.5,1.7l1,1.1l2.2-0.7l2.2,0.7l1.2,0.4l-0.1-4L746,30.7L746,30.7z"/>
		<path d="M457.8,31.1l1.5,0.6l-1,1.8V36l-2.2,1.4h-2.4l-1.3-1.7l0.1-1.8l1-1.4h2.1L457.8,31.1L457.8,31.1z"/>
		<path d="M463.4,29.4v1.8l1.5,1.2l2.1-0.1l1.8-1.7v-1.2h-1.6l-1.3,0.4l-1-1.2L463.4,29.4L463.4,29.4z"/>
		<path d="M471.9,29.6l1,2.2L475,32l1.5-0.6l-0.7-2.1l-1.9-0.5L471.9,29.6L471.9,29.6z"/>
		<path d="M480.4,26.6l-1.6-0.3l-1.5,1.5l0.7,1.3l0.4,2.1l1.9-1.5l0.4-1.6L480.4,26.6L480.4,26.6z"/>
		<path d="M489.5,42.5l-0.5,2.1l-3.4,3l-7.3,1.7l-6,9.9l-1,2.9l6,1.5l0.9-3.6l1.8-5.5l4.6-2.4l3.9-3l2.8-1.2h1.5v-4L489.5,42.5
			L489.5,42.5z"/>
		<path d="M470.3,64.4l4,0.5l1.3,4.6l3.4,3.6l-1.2,2.4h-2.1l-1.9-2.2l-4.3-0.1l-1.8-2.4V69l2.7-0.8L470.3,64.4L470.3,64.4z"/>
		<path d="M533.1,13.2l-1.9-1.2h-2.2l-0.4,1.4l-2.4,1.3l-1.8,0.6l-0.3,1.8l4.2,0.3L533.1,13.2L533.1,13.2z"/>
		<path d="M537.7,13.7l-1,2.2l-2.1-0.1l-3.3,2.4l-0.9,3h2.1l1.2-2l2.8,2.1l2.7-1.2l1.9-1.6l-0.7-2.6l-1-1.8L537.7,13.7L537.7,13.7z"
			/>
		<path d="M542,15.3l1,4.2l1.6,3.9l1.8-3.1l3.4-0.8v-2.2l-2.2-1.7L542,15.3L542,15.3z"/>
		<path d="M623.7,8.6l2.3,2l1.6-0.7l0.5-2.7l-3.4-2.3l-2.2,1.5l-5.4,0.5v2.4l-5.7,0.1v4l6.7,5l1.7-1.3l-0.4-3.5l4.3-1.1l-0.9-1.7
			l-1.5-1.6L623.7,8.6L623.7,8.6z"/>
		<path d="M629.9,6.2l1.5,2.9l6-0.7l1.7-2.2l-0.4-1.9l-1.7-0.7L635.5,5l-4.5,1L629.9,6.2L629.9,6.2z"/>
		<path d="M629.5,17.7l-3-0.8l-1.7,1.9l-0.8,2.5l4.1-0.4l3.1-1.6L629.5,17.7L629.5,17.7z"/>
		<path d="M707.5,0.8L704.9,0L702,1.1l-1.5,2.2l1.8,2.4l4.8-2.2l1-1.1L707.5,0.8L707.5,0.8z"/>
		<path d="M708.4,116.7v3.7l1.2,0.4l0.8-1.3v-2.8L708.4,116.7L708.4,116.7z"/>
		<path d="M674.6,103.5l-0.1,5.3l6.7,10.3l2.4,9l4.2,8l1.6,0.6l1.4-1.2l0.7-1.9l-6-6.6l0.2-3.4l1.3-0.6l0.3-2l-11.8-16.7
			L674.6,103.5L674.6,103.5z"/>
		<path d="M721.2,86.9l-1.6,0.2l1,1.4l2.1,1.4l0.6-0.7L721.2,86.9L721.2,86.9z"/>
		<path d="M724.4,87.9l0.3,1.4l2.6,0.8l0.3-1L724.4,87.9L724.4,87.9z"/>
		<path d="M738.5,93.4l1.1,1.9l1.8-0.1l0.4-1.3L738.5,93.4L738.5,93.4z"/>
		<path d="M756.6,96.4l1.4,2.7l1.1-1.2V96L756.6,96.4L756.6,96.4z"/>
	</g>
	<path id="rw" d="M449.1,291.3l2.4,2.2l-0.1,2.4l-3.8,0.1v-2.6L449.1,291.3L449.1,291.3z"/>
	<path id="sa" d="M489,216.4l6.1,8.4l2,1.6l0.9,3.8l9.3,0.7l1.1,0.6l-1,4.7l-6.1,3.6l-9,2.7l-4.8,4.7l-5.7-3.3l-3.4,3l-4.8-7.8
		l-3.3-1.5l-1.2-1.8v-3.9l-12-14.5l-0.5-2.6h3.4l4.2-3.6l0.1-1.8l-1.2-1.2l2.4-2l5.1,0.3l8.7,7.2l5.1-0.2l0.3,1.3L489,216.4
		L489,216.4z"/>
	<g id="sb">
		<path d="M753,308.3l1.1,3l1.9,1.8l0.6-0.5l-0.2-2l-2.1-2.6L753,308.3L753,308.3z"/>
		<path d="M758.2,312.7l0.1,2l1.2,1.1l1.1-0.7l-1-2.1L758.2,312.7L758.2,312.7z"/>
		<path d="M759.8,317.6l-1,1.1l1.1,2l1.3,0.4l-0.1-1.3L759.8,317.6L759.8,317.6z"/>
		<path d="M762.2,316.5l0.9,2.2l1.7,2l0.9-1.5l-1.3-2.2L762.2,316.5L762.2,316.5z"/>
		<path d="M766.6,319.7l0.5,2.7l1.2,1.7l1-2.1L766.6,319.7L766.6,319.7z"/>
		<path d="M768,325.7l-0.4,0.8l1.5,1.9l1,0.1l-0.6-2.5L768,325.7L768,325.7z"/>
		<path d="M764.8,329.5l-1.5,0.7l1.3,1.8l1.1-0.6L764.8,329.5L764.8,329.5z"/>
	</g>
	<g id="sc">
		<path d="M504.9,307.3l-0.5,1.1l1.4,1.2l1.1-1.2L504.9,307.3L504.9,307.3z"/>
		<path d="M512.3,299.3l-1.6,1.1l1.2,1.9h1.6L512.3,299.3L512.3,299.3z"/>
		<path d="M512.9,304l-1.1,1.2l0.8,1.2l1.4,0.3l0.1-2.5L512.9,304L512.9,304z"/>
	</g>
	<path id="sd" d="M435.4,263.4l-2.5-1.5l-2.3-4.6l0.1-4.3l3.2-2.8l0,0l0.2-10.2l2.1,0.1l-0.2-5.7l22.3,0.2l3.2-3.2l6.9,11l-3.8,4.4
		v6.8l-4.6,9.9l-1,2.3l-3.7-5.3l-2.7,3.4l-3.1,0.8l-9.9-1l-4.3,1.5L435.4,263.4z"/>
	<g id="se">
		<path d="M414.5,87.9l1.7,1.6h3.2l1.7,3.4l0.5,5.7l-4.3,3v3l-3,4.2l-1.7,0.2l-2.4,4l0.2,3.8l4.1,3l-0.3,1.8l-1.6,2.4l-2.4,2.1
			l0.2,6.9l-3.6,1.3l-1.3,2.7h-1.7l-0.9-4.8l-4-6.1l3.3-5.5l0.2-13.5l2.2-1.2l0.5-7.7l6.4-9.2L414.5,87.9L414.5,87.9z"/>
		<path d="M415.1,127.3l-1.8,1.4l0.9,2.1l1.6-1.6L415.1,127.3L415.1,127.3z"/>
	</g>
	<path id="sg" d="M627.5,286.1l0.7,0.4l1.5-0.1l-0.1-1.2l-1.3,0.2L627.5,286.1z"/>
	<path id="si" d="M411.9,163.5l-2.2,1.3l-4.1,0.9l0.8,2.4l2.9,0l2.6-2.2L411.9,163.5L411.9,163.5z"/>
	<path id="sk" d="M412.8,159.3l0.6,0.5l0.1,0.9l6.6-0.1l4.9-2.1l-0.1-2.1l-0.9,0.4l-1.3-0.7l-0.8,0l-2.2,0.9l-2.9-0.7L412.8,159.3
		L412.8,159.3z"/>
	<path id="sl" d="M342,268.2l4.9,4.7l3.5-4.2l-2.2-3.4l-3,0.3L342,268.2L342,268.2z"/>
	<path id="sn" d="M341.7,257.2l-5.8-0.1l0,0l1.1,2.6l0.6-1.6l7.3,0.8l0.8,0l3.4,0.1l0.1-1.5l-3.1-3.7l-3.5-4.7l-2.2-0.9l-1.7,0.4
		l0,0l-3.4,2.5l-0.8,1.4l-0.2,1.4l1.3,0.9l4.2-0.1l2.7-0.7l0.3,1.3l-0.2,1.7L341.7,257.2z"/>
	<path id="so" d="M495.9,260.4l3.8-1.5l1.3,0.8l-0.1,3.4l-3.5,9.9l-18.9,20.2l-2.2-1.5l-0.1-8.5l2.8-3.3l6-1.9l8.8-9.3l2.3-2.1
		l0.6-3L495.9,260.4L495.9,260.4z"/>
	<path id="sr" d="M237.6,275.1l1.8,1.6l2.7-1.7l2.5,0.1l-0.3,1l-1,2.2l-0.2,5.4l-5,2l0.2-3.5l-3.2-3l0.2-1.5L237.6,275.1
		L237.6,275.1z"/>
	<path id="ss" d="M458.6,266.4l-2,0.9l0.6,3.6h2.5l3.4,5l-2.8,0.4l-0.7,1.3l-0.1,1.9l-8.3-0.1l-0.8-1.3l-5.8-0.3l-10.6-11l1.1-0.6
		l4.5-1.4l9.9,0.8l3.4-0.8l2.2-3L458.6,266.4z"/>
	<g id="st">
		<path d="M391.1,289l1-0.5l0.7,0.6l-0.7,1.1l-0.9-0.4L391.1,289L391.1,289z"/>
		<path d="M393.1,285.8l1.5-0.3l0.5,1l-0.7,0.8l-0.7-0.1L393.1,285.8L393.1,285.8z"/>
	</g>
	<path id="sv" d="M158.5,253.6l4.1,2l-0.1-3.2l-2.1-1.3L158.5,253.6L158.5,253.6z"/>
	<path id="sy" d="M456.8,195.6l-0.3,2.2l2.4,1l-0.1,6.1l2.4-0.1l2.4-1.8l0.9-0.2l5.5-4.4l1.1-6.4l-11.1,1.1l-1.2,2.6L456.8,195.6
		L456.8,195.6z"/>
	<path id="sz" d="M451.8,355.4l-2.2,0.4l-0.9,2.6l1.7,1.5h2l1.7-2.4L451.8,355.4L451.8,355.4z"/>
	<path id="td" d="M410.2,253.4l0.1-2.6l4.1-4l1.1-9.8l-2.7-5.2l1.9-1l18.5,9.6l-0.1,9.5l-3.3,2.8v4.9l2.1,4.1h-3.8l-6.2,6.2
		l-0.2,1.9l-4.6-0.1l-0.1,0.8l-2.6-0.3l-1.8-3.4l-1.4-0.7l0.2-1l1.7-1.3v-6.1l-2.3-0.4l-2.8-2.1L410.2,253.4L410.2,253.4
		L410.2,253.4z"/>
	<path id="tg" d="M377.7,275.2l2.3-1.4l-0.1-8.9l-1.5-2.4l-1,0.8L377.7,275.2L377.7,275.2z"/>
	<path id="th" d="M615.3,231.3l2.8,3.6v4.4l1,0.5l4.5-2.1l0.9,0.3l5.3,6.1l-0.2,4.2l-1.7-0.3l-1.5-1l-1.2,0.1l-2,3.4l0.4,1.9
		l1.6,0.9l-0.1,2l-1.2,0.6l-4-2.7v-2.4l-1.6-0.1l-0.7,1.1l-0.3,10.9l2.6,4.7l4.5,4.4l-0.2,1.3l-2.4-0.1l-2.2-3.3h-2.3l-2.9-2.3
		l-0.9-2.4l1.3-2l0.4-1.9l1.4-2.4l-0.1-5.6L613,248l-0.1-0.6l1.1-1.1l-0.3-3.8l-4.4-5.6l0.5-3.2L615.3,231.3L615.3,231.3z"/>
	<path id="tj" d="M529,180.6l3.6-4.4h1.3l0.5,1l-1.6,1.2v1l1.1,0.8l5.2,0.3l1.7-0.7l0.8,0.2l0.5,1.7l3.1,0.3l1.5,3.3l-0.5,1
		l-0.6,0.1l-0.6-1.2l-1.3-0.1l-2.3,0.3l-0.2,2.2l-2.3-0.2l0.1-2.8l-1.7-1.7l-2.6,2.1l0.1,1.4l-2.3,0.8H531l0.1-4.8L529,180.6
		L529,180.6z"/>
	<path id="tm" d="M497.6,177l-0.5,2.3h-3.6v3.1l3.9,2.5l-1.2,3.5v1.6l1.6,0.3l2.1-2.8l4.8-1.1l10.2,3.9l0.1,2.8l5.7,0.5l6.4-6.7
		l-0.8-2.1l-4.3-0.9l-12-7.8l-0.5-2.8H505l-2,3.8h-2L497.6,177L497.6,177z"/>
	<path id="tn" d="M394.7,194l4.8-1.9l1.6,1l0.1,1.2l-0.7,1l0.1,1.7l0.7,0.4v3.1l-0.8,1.4l0.1,0.9l3.2,1.1l-2.6,4l-1-0.1l-0.2,3.2
		l-1.1,0.2l-1-0.8l0.2-3.3l-3.1-3.1l-0.4-2.7l1.5-1.2L394.7,194L394.7,194z"/>
	<path id="tr" d="M442,180.3l-2.3-1.4l-1.3-1l-2.1,0.9l0,0l-1.5,3.7l2.2-0.5l1.6-1.2l3.4,0.9l-1.9,1.9l-5.2-0.2l-1.9,2.1v1l1.2,1
		v1.1l-0.5,1.3l0.5,1.1l1.6-0.8l1.6,1.7l-0.4,1.2l-0.6,0.8l0.9,1l4.5,0.9l3.1-1.3v-1.9l1.5,0.3l3.6,2.1l3.9-0.6l1.7-1.6l1.1,0.4v1.8
		h1.5l1.3-2.5l11.5-1.2l5-0.6l-1.3-1.7l0-2.4l1-1.2l-3.7-3l0.2-2.6h-2l-3.4-1.6l0,0l-1.9,2l-7.1-0.2l-4.3-2.5l-4.1,0.4l-4.5,2.7
		L442,180.3z"/>
	<path id="tt" d="M228.2,261l-0.9,0.8l-1,0.2v1.2l1.8,1.7l0.8-1.2l0.5-1.4l-0.2-1.1L228.2,261L228.2,261z"/>
	<path id="tw" d="M664.9,212.2l-3.1,2.3l-0.2,4.5l2.6,3.1l0.7-0.6L664.9,212.2L664.9,212.2z"/>
	<path id="tz" d="M461.5,318.4l13.8-1.7l-3.4-6.6l-0.2-6.3l1.1-3l-14.4-9l-4.5,0.7l-1.6,1.2l-0.1,2.6l-1,3.7l-1.1,1.3l-1.5,0.1
		l2.8,9.4l4.8,2.8l4.2,0.1L461.5,318.4z"/>
	<path id="ua" d="M429.9,147.2l-2.5,1.4l0.6,2.7l-2.3,4.9l0,2.2l1.1,0.7l7,0.3l2-1.6l2.1,0.7l3,4l-2.2,3.9l2.6,0.8l3.4-3.9l2,0.4
		l1.8,1.3l-1.6,2.1l2.2,3.4h2.3l1.2-2.2l2.4-0.5l0.1-1.8l-4.5-0.7l0.1-2h4.4l4.7-3.8l2.1-1.8l0.3-5.8l-9.3-0.8l-3.8-5.4l-2.6-0.9
		l-3.2,0.1l-1.4,3.6l-6.6,0.1l-2.1-1L429.9,147.2L429.9,147.2z"/>
	<path id="ug" d="M449.5,290.6l2.6,2.5l1.6-1l4.4-0.7l0.8,0.1l0.3-1.7l2.5-5.3l-2.1-4.4l-6.8,0l0,1.8l0.9,0.9l-0.1,1.8L449.5,290.6
		L449.5,290.6z"/>
	<g id="us">
		<path d="M112.8,134.4l-0.9,3.5l-3-2h-1.5l-0.9,3.7L96,163.3l2.8,20.6l3.4,1.7l0.6,5.6h7.1l6.9,5.2l13.6,1.3l1.5,6.9l2.2,1.5l3-3
			l2.4,1.1l2.2,10l3.7,2.4l3-5.6l9.3-6.7l6,2.8l5.2,0.4l0.2-3.2l10.8,0.2l2.2,2.4l0.4,5.4l-1.3,3l1.5,5.2h3.2l3.2-5l-1.3-2.4
			l-1.3-5.2l1.9-5.9l8.8-7.6l6.7-2l-0.9-6.3l9.3-10l9.3-1.5l-1.5-5.2l9-5.2v-6.9l-0.9-0.4l-3.2,1.1l-0.4,4.3l-10.7,0.1l-8.4,5.6
			l-13.2,4.3l-2.1-2.6l6-9.1l-3-2.8l-2-3.8l-4.2-3.4l-4.5-0.4l-8.6-5.9L112.8,134.4L112.8,134.4z"/>
		<path d="M44,43.6l3,5.6l1.9-0.4v-1.9L44,43.6L44,43.6z"/>
		<path d="M27.2,92.8L27,95.4l1.9-0.4v-1.2L27.2,92.8L27.2,92.8z"/>
		<path d="M24.3,94l-3.7,1.9l0.6,2l1.4-1.2l2.9-1.3L24.3,94L24.3,94z"/>
		<path d="M8.8,96.5l-2.6-0.6L5.8,97L6,99.2L8.8,96.5L8.8,96.5z"/>
		<path d="M3.3,96.3l-2.4-1L0,96.9l1.6,1.6L3.3,96.3L3.3,96.3z"/>
		<path d="M64.7,36.3l-7.3,1.7l1.5,8.2l7.9,2.2l0.4,1.7l-11.7,3.7l-6.6,11l2.3,11.6l3.8,2.6l3-2.8l0.9,1.7l-3.6,4.3l-14.1,6.4
			l-9,2.2l-0.2,3.2l20.7-6l8.5-2.4l7.9-9.7l8.7-5.8l-4.5,7.5l4.9,0.6l8.3-3.7l1.5,6l5.8,1.3l6,5.8l0.4,4.3l-0.9,1.1l1.1,4.1h1.5
			l0.2-6.9h1.7l0.4,17l4.3-3.7l-3-17.6h-4.5l-4.9-6.2l24.1-40.8L96.5,20.2l-26.7,5.2l-1.1,8.2l5.8,3.4l-2.1,5.6L64.7,36.3L64.7,36.3
			z"/>
	</g>
	<path id="uy" d="M243.9,370.9l-1.8,1.9l0.7,10.2l5.6,1.6l7.1-7.1L243.9,370.9L243.9,370.9z"/>
	<path id="uz" d="M527.9,186.9l2.7,0.1v-4.6L528,181l4.3-5.4h1.7l1.7,2l4.5-1.7l-6.2-2.1l-0.2-1.3l-1.5,0.4l-1.5,2.5l-6.3-0.2
		l-4.6-6.5l-8.1,0.8l-3.9-3.8l-5.4-0.9l-3.9,1.6l2.3,7.5l0,2.5l1.6,0l2-3.8l5.4,0.1l0.8,2.9l11.5,7.6l4.4,1L527.9,186.9L527.9,186.9
		z"/>
	<g id="vc">
		<path d="M228.1,255l-1.1,0.8l0.8,1.5l1.4-0.8L228.1,255L228.1,255z"/>
		<path d="M226.8,258l-1,1l0.4,0.6h1.2l0.4-1L226.8,258L226.8,258z"/>
	</g>
	<path id="ve" d="M200.7,262l0.4,2.2l2.8,0.9l0.6-4.1l3-3.1l3,3.5l6.8,1.9l5.8-1.2l3.9,4.8l3,1.9l-3.2,5l1.1,3.8l-1.9,2.3l-1.9,1.6
		l-4.2-2.1l-1,1v3l3.1,1.5l-2.2,2.4l-2.2,2.4l-3-0.2l-3-3.3l-0.6-12.3l-10.2-3.5l-1.9-5.4L200.7,262L200.7,262z"/>
	<path id="vn" d="M628.3,260.7l1,1.6l0.2,1.9l2.7,0.3l3.3-4.4l3.1-0.9l1.6-4.5l-0.8-7.2l-3.2-4.4l-3.4-2.7l-4.3-7.3l3.1-5.1l-4.4-5
		l-3.5-0.2l-3.2,1.7l0.9,4.1l4.2,0.7l1.1,3.1l-1.5,1l0.1,0.8l9.9,9.7l0.4,2.8l-0.6,9L628.3,260.7L628.3,260.7z"/>
	<g id="vu">
		<path d="M780.2,340.9l-1.1,1.4l0.5,1.6l0.5,0.4l1-1.3L780.2,340.9L780.2,340.9z"/>
		<path d="M780.8,345.3l0.1,1.2l1.2,0.4l0.8-0.4l-0.8-1.3L780.8,345.3L780.8,345.3z"/>
		<path d="M782.5,355.7l-0.5,0.8l0.8,0.9l1.3-0.4L782.5,355.7L782.5,355.7z"/>
	</g>
	<g id="ye">
		<path d="M478.7,247.5l1.2,3.7v3.6l3,2.7L504,249l0.2-2.4l-3.4-6.1l-8.5,2.7l-4.9,4.8l-5.6-3.3L478.7,247.5L478.7,247.5z"/>
		<path d="M502.5,256.5l1.8,2.1l2.5-1.5l0.9-0.3l-1.1-1.1l-2.2,0.6L502.5,256.5L502.5,256.5z"/>
	</g>
	<path id="za" d="M446,346.4l-6.8,6.3l-1.6,3.9l-5.4-0.7l-4.5,4l-3-0.3l0.2-5.5l-1.1-0.4l-0.7,11.3l-5.3-0.1l-1.6-1.9l-2.3,0
		l2.1,6.1l3.8,3.6L417,376l1.8,4l4.1,1.6l3.2-2.8l9.3,0.1l0.7-0.8l4.1-0.7l14-13.9l-0.1-4.4l-1.5,1.9h-2.2l-2.7-2.3l1.4-3.4l2.4-0.5
		l-0.2-7.1L446,346.4L446,346.4z M442.7,362.4l1.3-0.1l2.1,2.3l-0.1,2.7l-2.5,1.3l-0.2,0.9l-3.8,0l-1.2-2.9l1.1-2.1L442.7,362.4
		L442.7,362.4z"/>
	<path id="zm" d="M429,330.1l2.7,3.8l4.2,0.3l1.5,0.8l4.4,0.1l3.8-5.4l10.7-4.8l0.9-4.2l-1.2-6l-5.6-3.2l-3.7,0.3l-1.9,4.1l0.1,1.9
		l4.4,2.1l0.3,4.6l-3.8,0.2l-0.9-1.6l-10.5-4.5l-0.3,3.4l-5,0.2L429,330.1L429,330.1z"/>
	<path id="zw" d="M437.8,336.6l7.8,8.8l5.9,1.5l4-6.2l-0.3-8.3l-6.5-3.3l-2.4,1.1l-3.6,5.5l-5-0.1L437.8,336.6L437.8,336.6z"/>
</g>
</svg>
