<?xml version="1.0" encoding="utf-8"?>
<!-- Generator: Adobe Illustrator 22.1.0, SVG Export Plug-In . SVG Version: 6.00 Build 0)  -->
<svg version="1.1" xmlns="http://www.w3.org/2000/svg" xmlns:xlink="http://www.w3.org/1999/xlink" x="0px" y="0px"
	 viewBox="0 0 750 311.8" style="enable-background:new 0 0 750 311.8;" xml:space="preserve">
<style type="text/css">
	.st0{display:none;}
	.st1{display:inline;fill:#F3E2D9;}
	.st2{display:inline;}
	.st3{fill:#FDFFFF;}
	.st4{fill:#7A98C5;}
	.st5{fill:#FDF9FF;}
	.st6{fill:#ECC9BF;}
	.st7{fill:#FFFFFF;}
	.st8{clip-path:url(#SVGID_2_);}
	.st9{fill:none;stroke:#7A98C5;stroke-width:2.7588;stroke-linecap:round;stroke-linejoin:round;stroke-miterlimit:10;}
	.st10{fill:#2F3052;}
	.st11{fill:#ACACAC;}
	.st12{fill:#F3E2D9;}
	.st13{fill:none;stroke:#2F3052;stroke-width:1.0617;stroke-miterlimit:10;}
	.st14{fill:none;stroke:#2F3052;stroke-width:2.1233;stroke-miterlimit:10;}
	.st15{fill:#61ABEB;}
	.st16{fill:#C80788;}
	.st17{fill:#F8F039;}
	.st18{fill:#5F70A1;}
	.st19{fill:#9ABDE7;}
	.st20{fill:#101010;}
	.st21{fill:none;stroke:#FFFFFF;stroke-width:0.959;stroke-linecap:round;stroke-linejoin:round;stroke-miterlimit:10;}
	.st22{fill:#1B1C3D;}
	.st23{fill:none;stroke:#7B7B7B;stroke-width:1.1102;stroke-linecap:round;stroke-linejoin:round;stroke-miterlimit:10;}
	.st24{fill:none;stroke:#7A98C5;stroke-width:0.984;stroke-miterlimit:10;}
	.st25{fill:#E3A299;}
	.st26{fill:#131314;}
	.st27{fill:#404366;}
	.st28{fill:#9297B7;}
	.st29{fill:none;stroke:#171717;stroke-width:0.4143;stroke-linecap:round;stroke-linejoin:round;stroke-miterlimit:10;}
	.st30{fill:#1E0B02;}
	.st31{fill:none;stroke:#1E0B02;stroke-width:0.6045;stroke-linecap:round;stroke-linejoin:round;stroke-miterlimit:10;}
	.st32{fill:#1F1E2D;}
	.st33{fill:none;stroke:#1E0B02;stroke-width:0.5455;stroke-linecap:round;stroke-linejoin:round;stroke-miterlimit:10;}
	.st34{fill:none;stroke:#2F3052;stroke-width:1.476;stroke-miterlimit:10;}
</style>
<g id="BACKGROUND" class="st0">
	<rect y="-148.1" class="st1" width="750" height="500"/>
</g>
<g id="OBJECTS">
	<g class="st0">
		<g class="st2">
			<g>
				
					<ellipse transform="matrix(0.9131 -0.4077 0.4077 0.9131 64.064 225.1508)" class="st3" cx="560.3" cy="-37.7" rx="50.4" ry="50.4"/>
				<g>
					<path class="st4" d="M582.3-22H576v-2.1h6.3c0.6,0,1-0.5,1-1v-24.1c0-0.6-0.5-1-1-1h-43.9c-0.6,0-1,0.5-1,1v24.1
						c0,0.6,0.5,1,1,1h6.3v2.1h-6.3c-1.7,0-3.1-1.4-3.1-3.1v-24.1c0-1.7,1.4-3.1,3.1-3.1h43.9c1.7,0,3.1,1.4,3.1,3.1v24.1
						C585.4-23.4,584-22,582.3-22z"/>
					<path class="st4" d="M577-12.6h-33.5v-17.8H577V-12.6z M545.7-14.7h29.3v-13.6h-29.3V-14.7z"/>
					<path class="st4" d="M577-50.3h-33.5v-12.6H577V-50.3z M545.7-52.4h29.3v-8.4h-29.3V-52.4z"/>
					<rect x="541.5" y="-30.4" class="st4" width="37.7" height="2.1"/>
					<rect x="570.8" y="-47.2" class="st4" width="3.1" height="2.1"/>
					<rect x="577" y="-47.2" class="st4" width="3.1" height="2.1"/>
					<rect x="548.8" y="-25.2" class="st4" width="23" height="2.1"/>
					<rect x="548.8" y="-18.9" class="st4" width="23" height="2.1"/>
				</g>
			</g>
			<g>
				<circle class="st4" cx="623.1" cy="-67" r="29"/>
				<g>
					<path class="st5" d="M624.2-55.3c-7,0-12.8-5.7-12.8-12.8c0-7,5.7-12.8,12.8-12.8c7,0,12.8,5.7,12.8,12.8
						C636.9-61,631.2-55.3,624.2-55.3z M624.2-79.3c-6.2,0-11.3,5.1-11.3,11.3s5.1,11.3,11.3,11.3c6.2,0,11.3-5.1,11.3-11.3
						S630.4-79.3,624.2-79.3z"/>
					<g>
						<path class="st5" d="M624.2-51.7c-0.4,0-0.7-0.3-0.7-0.7v-31.2c0-0.4,0.3-0.7,0.7-0.7c0.4,0,0.7,0.3,0.7,0.7v31.2
							C624.9-52.1,624.6-51.7,624.2-51.7z"/>
						<path class="st5" d="M639.8-67.3h-31.2c-0.4,0-0.7-0.3-0.7-0.7c0-0.4,0.3-0.7,0.7-0.7h31.2c0.4,0,0.7,0.3,0.7,0.7
							C640.5-67.7,640.2-67.3,639.8-67.3z"/>
					</g>
				</g>
			</g>
		</g>
		<g class="st2">
			<path class="st6" d="M470.2-16.6h-92.4c-1.9,0-3.5-1.5-3.5-3.5l0,0c0-1.9,1.5-3.5,3.5-3.5h92.4c1.9,0,3.5,1.5,3.5,3.5l0,0
				C473.7-18.2,472.1-16.6,470.2-16.6z"/>
			<path class="st6" d="M699.2,63.1h-44.8c-1.9,0-3.5-1.5-3.5-3.5l0,0c0-1.9,1.5-3.5,3.5-3.5h44.8c1.9,0,3.5,1.5,3.5,3.5l0,0
				C702.7,61.5,701.1,63.1,699.2,63.1z"/>
			<path class="st6" d="M80.2,188.3h-35c-1.9,0-3.5-1.5-3.5-3.5l0,0c0-1.9,1.5-3.5,3.5-3.5h35c1.9,0,3.5,1.5,3.5,3.5l0,0
				C83.6,186.8,82.1,188.3,80.2,188.3z"/>
			<path class="st4" d="M686.4,112.4h-5.5c-1.4,0-2.6-1.2-2.6-2.6v-5.1c0-1.4,1.2-2.6,2.6-2.6h5.5c1.4,0,2.6,1.2,2.6,2.6v5.1
				C689,111.2,687.8,112.4,686.4,112.4z"/>
			<path class="st4" d="M428.4-52.3h-5.5c-1.4,0-2.6-1.2-2.6-2.6V-60c0-1.4,1.2-2.6,2.6-2.6h5.5c1.4,0,2.6,1.2,2.6,2.6v5.1
				C431-53.4,429.8-52.3,428.4-52.3z"/>
			<path class="st4" d="M84,132.4h-5.5c-1.4,0-2.6-1.2-2.6-2.6v-5.1c0-1.4,1.2-2.6,2.6-2.6H84c1.4,0,2.6,1.2,2.6,2.6v5.1
				C86.6,131.2,85.5,132.4,84,132.4z"/>
		</g>
		<g class="st2">
			<g>
				
					<rect x="63.5" y="-56.5" transform="matrix(-1 -1.224647e-16 1.224647e-16 -1 171.9463 -67.7437)" class="st4" width="45" height="45.3"/>
				<polygon class="st4" points="108.5,-18.5 108.5,-2.7 95,-18.5 				"/>
			</g>
			<g>
				<path class="st7" d="M89.6-24c0,2-1.6,3.6-3.6,3.6c-2,0-3.6-1.6-3.6-3.6s1.6-3.6,3.6-3.6C88-27.7,89.6-26,89.6-24z"/>
				<g>
					<defs>
						<polyline id="SVGID_1_" points="86,-24 113.9,-50.6 86,-50.6 58,-50.6 86,-24 						"/>
					</defs>
					<clipPath id="SVGID_2_">
						<use xlink:href="#SVGID_1_"  style="overflow:visible;"/>
					</clipPath>
					<g class="st8">
						<g>
							<path class="st7" d="M86-11.6c-6.8,0-12.4-5.6-12.4-12.4c0-6.8,5.6-12.4,12.4-12.4c6.8,0,12.4,5.6,12.4,12.4
								C98.4-17.2,92.8-11.6,86-11.6z M86-33C81-33,77-28.9,77-24c0,4.9,4,8.9,8.9,8.9c4.9,0,8.9-4,8.9-8.9C94.9-28.9,90.9-33,86-33
								z"/>
						</g>
						<g>
							<path class="st7" d="M86-3.5c-11.3,0-20.6-9.2-20.6-20.6c0-11.3,9.2-20.6,20.6-20.6c11.3,0,20.6,9.2,20.6,20.6
								C106.5-12.7,97.3-3.5,86-3.5z M86-41.1c-9.4,0-17.1,7.7-17.1,17.1c0,9.4,7.7,17.1,17.1,17.1c9.4,0,17.1-7.7,17.1-17.1
								C103.1-33.5,95.4-41.1,86-41.1z"/>
						</g>
					</g>
				</g>
			</g>
		</g>
		<g class="st2">
			<g>
				<circle class="st3" cx="249.5" cy="-63.6" r="41.4"/>
			</g>
			<g>
				<path class="st9" d="M266.2-70.1c0.7,2,1.1,4.1,1.1,6.3c0,9.9-8,17.8-17.8,17.8c-9.9,0-17.8-8-17.8-17.8c0-9.9,8-17.8,17.8-17.8
					c3.2,0,6.1,0.8,8.7,2.3"/>
				<polyline class="st9" points="246.8,-71.3 253.3,-64.7 265.9,-79.5 				"/>
			</g>
		</g>
	</g>
	<g>
		<path class="st6" d="M90.5,291.6c0,0,5.8-233.4,293.8-233.4s290.5,234.5,290.5,234.5L90.5,291.6z"/>
		<g>
			<g>
				<g>
					<g>
						<g>
							<g>
								<rect x="502.7" y="151.9" class="st4" width="27.4" height="140.8"/>
								<path class="st4" d="M538.7,277.9h-44c-7.3,0-13.2,5.9-13.2,13.2v1.6H552v-1.6C552,283.8,546,277.9,538.7,277.9z"/>
								<rect x="494.8" y="151.9" class="st10" width="27.4" height="140.8"/>
								<path class="st10" d="M530.9,277.9h-44c-7.3,0-13.2,5.9-13.2,13.2v1.6h70.4v-1.6C544.1,283.8,538.2,277.9,530.9,277.9z"/>
							</g>
							<polygon class="st11" points="494.8,151.9 494.8,170.2 530.1,158.3 530.1,151.9 							"/>
						</g>
						<g>
							<g>
								<rect x="213.7" y="151.9" class="st4" width="27.4" height="140.8"/>
								<path class="st4" d="M249.8,277.9h-44c-7.3,0-13.2,5.9-13.2,13.2v1.6H263v-1.6C263,283.8,257.1,277.9,249.8,277.9z"/>
								<rect x="205.9" y="151.9" class="st10" width="27.4" height="140.8"/>
								<path class="st10" d="M242,277.9h-44c-7.3,0-13.2,5.9-13.2,13.2v1.6h70.4v-1.6C255.2,283.8,249.3,277.9,242,277.9z"/>
							</g>
							<polygon class="st11" points="205.9,151.9 205.9,170.2 241.2,158.3 241.2,151.9 							"/>
						</g>
					</g>
					<g>
						<g>
							<path class="st10" d="M475.2,39.7h71.6c5.8,0,11.2,3.1,14,8.2l21,37.6c2.6,4.6-0.7,10.3-6,10.3h-76.2L475.2,39.7z"/>
							<polygon class="st11" points="510.1,39.7 541.6,95.8 516.4,95.8 485.8,39.7 							"/>
							<g>
								<polygon class="st4" points="525.9,53.4 529.4,59.7 548.3,59.7 544.7,53.4 								"/>
								<polygon class="st12" points="530.6,61.8 531.6,63.6 550.5,63.6 549.3,61.8 								"/>
								<polygon class="st12" points="532.5,65.1 533.5,67 552.4,67 551.2,65.1 								"/>
								<polygon class="st12" points="534,68.5 535.1,70.4 554,70.4 552.8,68.5 								"/>
								<polygon class="st12" points="538.8,76.6 539.8,78.5 558.7,78.5 557.6,76.6 								"/>
								<polygon class="st12" points="540.7,80 541.7,81.8 560.6,81.8 559.5,80 								"/>
								<polygon class="st4" points="535.9,71.9 537.5,74.8 566.7,74.8 564.9,71.9 								"/>
								<polygon class="st4" points="548.3,53.4 557.9,70 564.4,70 554.7,53.4 								"/>
								<polygon class="st4" points="560.6,76.6 563.8,81.8 570.3,81.8 567,76.6 								"/>
							</g>
						</g>
						<g>
							<path class="st4" d="M206.3,151.9H544v-21.3c0-7.9-2-15.7-5.7-22.6l-31.5-58.6c-3.2-6-9.5-9.7-16.3-9.7H206.3V151.9z"/>
							<path class="st10" d="M180.5,151.9h81.9v-21.3c0-7.9-2-15.7-5.7-22.6l-31.7-58.9c-3.1-5.8-9.2-9.4-15.8-9.4h-28.7V151.9z"/>
							<g>
								<polyline class="st13" points="298.8,92.4 279.9,58.7 460.2,58.7 484.2,99.2 								"/>
								<line class="st14" x1="288.7" y1="74.3" x2="469.6" y2="74.3"/>
								<polygon class="st10" points="295.5,86.5 476.8,86.5 484.2,99.2 298.8,92.4 								"/>
							</g>
						</g>
					</g>
					<g>
						<g>
							<g>
								<rect x="277.7" class="st4" width="8.7" height="39.7"/>
								<rect x="256" class="st10" width="21.7" height="39.7"/>
							</g>
							<g>
								<rect x="262.7" class="st4" width="8.7" height="39.7"/>
								<rect x="241" class="st10" width="21.7" height="39.7"/>
							</g>
							<g>
								<rect x="247.5" class="st4" width="8.7" height="39.7"/>
								<rect x="225.8" class="st10" width="21.7" height="39.7"/>
							</g>
							<g>
								<rect x="231.3" class="st4" width="8.7" height="39.7"/>
								<rect x="209.6" class="st10" width="21.7" height="39.7"/>
							</g>
							<g>
								<path class="st3" d="M237.9,6.2c0,1.2-1,2.2-2.2,2.2c-1.2,0-2.2-1-2.2-2.2s1-2.2,2.2-2.2C236.9,3.9,237.9,4.9,237.9,6.2z"/>
								<path class="st3" d="M254.1,6.2c0,1.2-1,2.2-2.2,2.2c-1.2,0-2.2-1-2.2-2.2s1-2.2,2.2-2.2C253.1,3.9,254.1,4.9,254.1,6.2z"/>
								<path class="st3" d="M269.3,6.2c0,1.2-1,2.2-2.2,2.2c-1.2,0-2.2-1-2.2-2.2s1-2.2,2.2-2.2C268.3,3.9,269.3,4.9,269.3,6.2z"/>
								<circle class="st3" cx="282" cy="6.2" r="2.2"/>
							</g>
						</g>
						<rect x="209.6" y="33.9" class="st11" width="76.7" height="5.8"/>
					</g>
				</g>
				<g>
					<g>
						<path class="st7" d="M315.1,233.2L315.1,233.2c0,18.7,15.1,33.8,33.8,33.8h74.2v-33.8H315.1z"/>
						<path class="st3" d="M298.8,92.4h172c0,0,24,1.9,24,32.6c0,30.7,0,108.3,0,108.3H315.1V126.5c0-10.1-3.7-19.8-10.3-27.3
							L298.8,92.4z"/>
						<g>
							<circle class="st15" cx="409.9" cy="153.6" r="28.8"/>
							<circle class="st16" cx="391" cy="185.9" r="28.8"/>
							<circle class="st17" cx="431.9" cy="185.9" r="28.8"/>
						</g>
					</g>
					<g>
						<path class="st18" d="M410.4,233.2c0,0-15.9-1.4-15.9,15.4c0,16.8-13.6,18.4-13.6,18.4h42.2v-33.8H410.4z"/>
						<path class="st19" d="M410.4,233.2h180.8c0,0,16.9,0.9,16.9,19.4v21.9h-185v-23.1C423.1,251.5,423,233.2,410.4,233.2z"/>
						<path class="st7" d="M649.2,274.6c0,0,2.2,13.6-20,18H453.8l21.3-18V256h174.1L649.2,274.6z"/>
						<path class="st19" d="M423.1,274.6L423.1,274.6c0,9.9,8,18,18,18h16.2c9.9,0,18-8,18-18v0H423.1z"/>
					</g>
				</g>
			</g>
			<g class="st0">
				<g class="st2">
					<g>
						<g>
							<g>
								<polygon class="st20" points="116.2,272.8 131.4,272.8 156.6,286.2 113.3,285.7 								"/>
								<g>
									<polygon class="st7" points="113.1,291.4 113.3,285.7 156.6,286.2 156.5,292 									"/>
								</g>
								<line class="st21" x1="142" y1="277.7" x2="137" y2="279.1"/>
								<line class="st21" x1="137.1" y1="275.2" x2="132.1" y2="276.6"/>
							</g>
							<polygon class="st3" points="135.3,251.3 119.7,251.3 116.2,272.8 131.7,272.8 							"/>
						</g>
						<g>
							<g>
								<polygon class="st20" points="163.3,273.2 178.5,273.2 203.7,286.7 160.4,286.2 								"/>
								<g>
									<polygon class="st7" points="160.3,291.9 160.4,286.2 203.7,286.7 203.6,292.4 									"/>
								</g>
								<line class="st21" x1="189.1" y1="278.2" x2="184.1" y2="279.6"/>
								<line class="st21" x1="184.2" y1="275.7" x2="179.2" y2="277.1"/>
							</g>
							<polygon class="st3" points="178.6,251.7 163,251.7 163.3,273.2 178.8,273.2 							"/>
						</g>
						<g>
							<path class="st22" d="M176.4,89.9c0,0,1.3,2.7,3.6,28c0.5,5.2,0.8,12.4,0.7,17.7l1.2,129.8l-22.2-0.2L155.5,128l-18.2,138.5
								l-23.2-0.8l14.5-171.8l10.5-1.8L176.4,89.9z"/>
							<line class="st23" x1="155.5" y1="128" x2="165" y2="123.6"/>
						</g>
					</g>
					<g>
						<g>
							<g>
								<g>
									<g>
										<path class="st3" d="M175.1,22.2c0,0,13.1,7.8,15.6,28.9l-18.6,10.2L175.1,22.2z"/>
									</g>
								</g>
							</g>
						</g>
						<g>
							<path class="st3" d="M150.2,15.6c-6.4,0.5-12.8,2-18.8,4.4c-1.5,0.6-2.9,1.2-4.2,1.9c-4.2,2.2-2.9,6.9-2.4,11.7l2.4,65
								l52.4-1.3l2.1-61.5c0.5-6.7-3.5-12.9-9.6-15c-6.9-2.4-15.2-5.1-18.9-5.4L150.2,15.6z"/>
							<line class="st24" x1="180.2" y1="58.1" x2="181.5" y2="39"/>
							<path class="st25" d="M169,19.7c0,0-9.6-3.8-15.8-4.3c0,0-8.4,0.4-14.2,2.1c0,0,3.2,6.8,18,8C171.8,26.6,169,19.7,169,19.7z"
								/>
						</g>
						<g>
							<g>
								<path class="st26" d="M213.6,51.2l-11,50.9c-0.4,1.8-1.9,3-3.7,3l-40.7-0.7c-2.4,0-4.1-2.3-3.6-4.6l11.4-50.9
									c0.4-1.7,1.9-3,3.7-2.9l40.2,0.7C212.4,46.7,214.1,48.8,213.6,51.2z"/>
								<polygon class="st26" points="212.5,47.6 214.9,50.1 157.9,105.5 155.3,102.8 								"/>
								<path class="st27" d="M215.8,53.4l-11,50.9c-0.4,1.8-1.9,3-3.7,3l-40.7-0.7c-2.4,0-4.1-2.3-3.6-4.6l11.4-50.9
									c0.4-1.7,1.9-3,3.7-2.9l40.2,0.7C214.6,48.9,216.3,51.1,215.8,53.4z"/>
								<path class="st28" d="M193.4,72c0.3,2.4-1.5,4.5-3.9,4.8c-2.4,0.3-4.5-1.5-4.8-3.9c-0.3-2.4,1.5-4.5,3.9-4.8
									C191,67.9,193.1,69.6,193.4,72z"/>
							</g>
							<path class="st25" d="M216.5,68.5l-3.1,12.4c-0.4,1.5-1.7,2.6-3.3,2.5l0,0c-4.6-0.1-8-4.3-7.2-8.8l0.8-4.1
								c0.6-3.3,3.4-5.8,6.8-6l2.5-0.2C215.3,64.2,217.1,66.3,216.5,68.5z"/>
						</g>
						<g>
							<g>
								<polygon class="st25" points="97.9,52.5 122.6,90.1 116,97.7 88.7,70 								"/>
								<path class="st25" d="M145.2,91.9l-10.5-5.6l1-2.4c0.4-0.9,0.1-1.9-0.6-2.5c-0.7-0.6-1.8-0.6-2.5,0l-10.4,8.5l-6.3,7.9
									c5.7,5.1,9.4,5,11.6,4c0.3,0.1,0.5,0.2,0.8,0.3l8.8,2.6c0.8,0.4,1.8,0,2.2-0.8c0.3-0.6,0.4-1.5-1.3-2.4l1.7,0.9
									c0.9,0.4,1.9,0,2.3-0.9c0.4-0.8-0.1-1.8-1.1-2.5l1.3,0.5c0.9,0.4,2-0.1,2.4-1.1c0.3-0.9-0.2-1.9-1-2.3l-1.9-1l2.2,0.6
									c1,0.4,2.2-0.2,2.5-1.3C146.6,93.3,146.1,92.3,145.2,91.9z"/>
								<line class="st29" x1="142.2" y1="95.3" x2="135.9" y2="92.3"/>
								<line class="st29" x1="140.5" y1="98.8" x2="134.5" y2="96.2"/>
								<line class="st29" x1="138.4" y1="101.6" x2="133.4" y2="99.5"/>
							</g>
							<g>
								<path class="st25" d="M132.5,42.1l-31.4,28c-2.9,3.1-7.5,3.5-11,1.1l0,0c-4.3-3-5.1-9.4-1.6-13.4L118.1,28
									c3.5-4.1,9.5-4.6,13.6-1.1l0,0C136.3,30.7,136.7,37.8,132.5,42.1z"/>
								<g>
									<path class="st3" d="M133.2,19.3c0,0-12.6,2.5-28.2,21.9l13.4,18l20.4-15.2L133.2,19.3z"/>
									<line class="st24" x1="125.3" y1="54.1" x2="137.1" y2="45.3"/>
								</g>
							</g>
						</g>
					</g>
					<g>
						<path class="st30" d="M171.4-13.1c0.6,2.7,3.3,4.5,6.1,3.8c2.7-0.6,4.5-3.3,3.8-6.1c-0.6-2.7-3.3-4.5-6.1-3.8
							C172.5-18.6,170.8-15.9,171.4-13.1z"/>
						<polygon class="st25" points="163.6,-0.6 163.1,19.4 148.1,18.1 151.8,-14.4 						"/>
						<polygon class="st30" points="163.3,11.1 152.6,-3.1 163.5,0.5 						"/>
						<path class="st25" d="M170.6-34.8c5.1,0.7,7.6,6.1,8.2,11c0.6,5.6,1.1,14.4-0.6,18.6C175.4,1.5,169.7,5.4,161,3
							c0,0-10.2-1.2-11.6-16.6C147.6-31.7,159.7-36.2,170.6-34.8z"/>
						<g>
							<path class="st30" d="M175.8-16.5c0.1,0.6,0.7,1,1.4,0.9c0.6-0.1,1-0.7,0.9-1.4c-0.1-0.6-0.7-1-1.4-0.9
								C176.1-17.8,175.7-17.1,175.8-16.5z"/>
							<path class="st30" d="M166-16.5c0.1,0.6,0.7,1,1.4,0.9c0.6-0.1,1-0.7,0.9-1.4c-0.1-0.6-0.7-1-1.4-0.9
								C166.3-17.8,165.8-17.1,166-16.5z"/>
							<path class="st31" d="M173.6-15.2l1.1,3.9c0.1,0.4-0.1,0.7-0.5,0.8l-1.2,0.2"/>
							<path class="st32" d="M174.8-24.9c0,0-0.5,1.4,1.3,1.7c1.3,0.2,2.1,0.3,2.9,0.6c0.4,0.2,0.9,0,1.1-0.3l0,0
								c0.2-0.3,0.2-0.7,0-1c-0.4-0.6-1.3-1.6-2.9-1.9C175.2-26.2,174.8-24.9,174.8-24.9z"/>
							<path class="st32" d="M168.7-24.9c0,0,0.5,1.4-1.7,1.6c-1.7,0.2-3.7,0.8-4.7,1.1c-0.5,0.2-1.2,0-1.5-0.4l0,0
								c-0.2-0.3-0.2-0.7,0-1c0.5-0.6,2.6-2.1,4.7-2.3C168.3-26.1,168.7-24.9,168.7-24.9z"/>
							<path class="st31" d="M167.5-8.2c0,0,2.3,1.9,6.1,1.1"/>
						</g>
						<path class="st32" d="M153.6-10.8l2.2-11.2c0.5-2.6-0.3-4.7-0.9-7.9c9.8,0,21.4-0.1,21.4-1c0,0-2.8-11.2-21-8
							c-27.4,4.7-14.8,30.3-4.9,35.9L153.6-10.8z"/>
						<g>
							<path class="st25" d="M143.8-12.2c0.7,3,3.7,4.9,6.7,4.2c3-0.7,4.9-3.7,4.2-6.7s-3.7-4.9-6.7-4.2
								C145-18.1,143.1-15.2,143.8-12.2z"/>
							<path class="st33" d="M146.8-15.2c0,0,4.2-0.9,4.9,3.7"/>
						</g>
						<path class="st32" d="M154.9-30c0,0,26.6,3.3,26.2-5.2c-0.4-8.5-16.2-12-23.1-3.7L154.9-30z"/>
					</g>
				</g>
			</g>
		</g>
		<line class="st34" x1="48.1" y1="292.7" x2="716.5" y2="292.7"/>
	</g>
</g>
</svg>
