<?xml version="1.0" encoding="utf-8"?>
<!-- Generator: Adobe Illustrator 22.1.0, SVG Export Plug-In . SVG Version: 6.00 Build 0)  -->
<svg version="1.1" id="Layer_1" xmlns="http://www.w3.org/2000/svg" xmlns:xlink="http://www.w3.org/1999/xlink" x="0px" y="0px"
	 viewBox="0 0 1366 2027" style="enable-background:new 0 0 1366 2027;" xml:space="preserve">
<style type="text/css">
	.st0{fill:#84A59D;}
	.st1{fill:#F6BD60;}
	.st2{fill:none;stroke:#707070;stroke-width:5;stroke-miterlimit:10;}
	.st3{fill:#F5CAC3;}
	.st4{fill:#CE796B;}
	.st5{fill:none;stroke:#707070;stroke-width:3;stroke-miterlimit:10;}
	.st6{fill:#F28482;}
</style>
<circle class="st0" cx="1193.4" cy="116.7" r="38.5"/>
<path class="st1" d="M241.9,785.8c-1.3-25.7-22.6-46.2-48.6-46.2s-47.3,20.5-48.6,46.2h-0.1v92.4h0.3c2.7,24.3,23.3,43.2,48.4,43.2
	s45.6-18.9,48.4-43.2h0.3L241.9,785.8L241.9,785.8z"/>
<polygon class="st2" points="564,171.4 507.4,222.3 496,139.4 "/>
<polygon class="st3" points="304.2,1772.8 77.3,1832 145.6,1605.1 "/>
<circle class="st4" cx="503.3" cy="182.1" r="28.4"/>
<circle class="st5" cx="939.8" cy="631.2" r="54.7"/>
<polygon class="st2" points="1194.9,126.5 1207.2,180 1154.7,164.4 "/>
<circle class="st6" cx="1093.9" cy="1209" r="65.8"/>
<path class="st4" d="M1371,652.3c-68.5,0-124,55.5-124,124s55.5,124,124,124c68.5,0,124-55.5,124-124S1439.5,652.3,1371,652.3z
	 M1371,842c-36.3,0-65.8-29.4-65.8-65.8c0-36.3,29.4-65.8,65.8-65.8s65.8,29.4,65.8,65.8C1436.8,812.6,1407.3,842,1371,842z"/>
<path class="st3" d="M854.7,586.4l80.2,80.2c21.8-22.2,21.7-57.8-0.3-79.9C912.5,564.7,876.9,564.6,854.7,586.4z"/>
<path class="st3" d="M0,180.4v113.4c31.1-0.3,56.2-25.6,56.2-56.7S31.1,180.7,0,180.4z"/>
</svg>
