<?xml version="1.0" encoding="utf-8"?>
<!-- Generator: Adobe Illustrator 22.1.0, SVG Export Plug-In . SVG Version: 6.00 Build 0)  -->
<svg version="1.1" id="Layer_1" xmlns="http://www.w3.org/2000/svg" xmlns:xlink="http://www.w3.org/1999/xlink" x="0px" y="0px"
	 viewBox="0 0 338.5 238.8" style="enable-background:new 0 0 338.5 238.8;" xml:space="preserve">
<style type="text/css">
	.st0{fill:none;}
	.st1{fill:#334EA1;}
	.st2{font-family:'Roboto-Light';}
	.st3{font-size:50px;}
	.st4{fill:none;stroke:#5E6CAF;stroke-width:4;stroke-miterlimit:10;}
</style>
<rect x="145.2" y="47.7" class="st0" width="583.1" height="117.6"/>
<text transform="matrix(1 0 0 1 145.1744 85.1728)" class="st1 st2 st3">gina hsu</text>
<g>
	
		<image style="overflow:visible;opacity:0.75;enable-background:new    ;" width="642" height="775" xlink:href="FB90FDCAD16958A4.png"  transform="matrix(0.2378 0 0 0.2378 -3.8652 0)">
	</image>
	<g>
		
			<image style="overflow:visible;opacity:0.39;enable-background:new    ;" width="517" height="658" xlink:href="FB90FDCAD16958A7.png"  transform="matrix(0.2378 0 0 0.2378 10.9805 13.8908)">
		</image>
		<g>
			<path class="st4" d="M91,76.6c-1.2,9.2-11.3,14.5-17.1,14.5c-9.4,0-17-7.6-17-17s7.6-17,17-17s17,7.6,17,17
				c0,3.6,1.1,18.5,0.5,26.6c-1.9,23.5-34.9,16.9-34.9,16.9C-4,102.2,15.7,49.1,36.9,30.1s82.9-16.7,90.8,32.1s-23.5,60.3-36.8,64.5
				c-12.8,4.1-37.3,2-37.1,8.9c-0.2,7.9,36.9,0.1,38,8S60,145,56.4,149s-3,10-1.5,13c2.3,4.6,33.7,3.2,36.6,1.5s1-12.7,1-12.7"/>
		</g>
	</g>
</g>
</svg>
