<?xml version="1.0" encoding="utf-8"?>
<!-- Generator: Adobe Illustrator 22.1.0, SVG Export Plug-In . SVG Version: 6.00 Build 0)  -->
<svg version="1.1" id="Layer_1" xmlns="http://www.w3.org/2000/svg" xmlns:xlink="http://www.w3.org/1999/xlink" x="0px" y="0px"
	 viewBox="0 0 5003.4 5003.4" style="enable-background:new 0 0 5003.4 5003.4;" xml:space="preserve">
<style type="text/css">
	.st0{fill:#02A841;}
	.st1{fill:#FFFFFF;stroke:#000000;stroke-miterlimit:10;}
	.st2{fill:#494949;}
</style>
<polygon class="st0" points="752.8,1420.9 1293.2,1420.9 1852.6,2368.1 2432,1420.9 2920.8,1420.9 2079.3,2751.1 2079.3,3582.5 
	1590.5,3582.5 1590.5,2751.1 "/>
<path class="st1" d="M253.3,884.7"/>
<path class="st1" d="M2006.5,2794.1"/>
<circle class="st0" cx="3943.7" cy="3275.6" r="306.9"/>
<path class="st2" d="M2911.2,2501.6l9.6,1080.9h392.9l-9.6-1080.9h341.7v-294.2H3302l1.2-136.7c-0.8-161.1,269.7-150.2,325.6-97.2
	l84-250.8c-86.8-181-804-207-801.6,242.7c1.4,250.4-1.8,250.4-1.8,250.4h-239.9v285.8L2911.2,2501.6z"/>
</svg>
